<svg width="366" height="326" viewBox="0 0 366 326" fill="none" xmlns="http://www.w3.org/2000/svg">
<path fill-rule="evenodd" clip-rule="evenodd" d="M-78.9243 20.0175C-78.9243 -148.169 38.4509 -285 182.711 -285C326.972 -285 444.347 -148.169 444.347 20.0175C444.347 188.204 326.972 325.021 182.711 325.021C38.4508 325.021 -78.9243 188.204 -78.9243 20.0175ZM433.4 -36.6596C410.635 -173.78 306.884 -277.652 182.711 -277.652C58.5473 -277.652 -45.1982 -173.806 -67.9728 -36.6926C-49.177 -86.6339 -6.34876 -121.606 43.3575 -121.606C53.4582 -121.606 63.2745 -120.162 72.6627 -117.442C86.1676 -132.145 101.834 -144.182 119.038 -152.827C118.897 -153.553 118.823 -154.309 118.823 -155.084C118.823 -159.788 121.543 -163.753 125.249 -164.958L125.248 -165.154L125.248 -165.333C125.248 -202.276 151.031 -232.319 182.709 -232.319C214.387 -232.319 240.17 -202.262 240.17 -165.333C240.17 -165.209 240.17 -165.084 240.17 -164.96C243.878 -163.757 246.601 -159.79 246.601 -155.084C246.601 -154.308 246.527 -153.552 246.386 -152.826C263.59 -144.18 279.255 -132.143 292.76 -117.44C302.15 -120.162 311.968 -121.607 322.069 -121.607C371.778 -121.607 414.612 -86.6187 433.4 -36.6596ZM129.979 -164.96L129.979 -165.122C129.978 -165.192 129.978 -165.263 129.978 -165.333C129.978 -199.23 153.632 -226.804 182.709 -226.804C211.787 -226.804 235.44 -199.23 235.44 -165.333C235.44 -165.208 235.44 -165.083 235.439 -164.958C233.088 -164.192 231.134 -162.316 230.02 -159.846C215.053 -165.206 199.166 -168.092 182.711 -168.092C166.256 -168.092 150.37 -165.206 135.403 -159.847C134.288 -162.319 132.332 -164.196 129.979 -164.96ZM136.391 -154.429C136.213 -151.145 134.707 -148.28 132.493 -146.556C138.467 -124.894 154.488 -108.437 174.129 -104.675C175.007 -109.256 178.517 -112.682 182.711 -112.682C186.904 -112.682 190.414 -109.256 191.292 -104.675C210.933 -108.438 226.954 -124.897 232.926 -146.559C230.715 -148.284 229.211 -151.147 229.033 -154.428C214.388 -159.724 198.83 -162.577 182.711 -162.577C166.593 -162.577 151.035 -159.724 136.391 -154.429ZM191.011 -99.0444C190.839 -98.4718 190.625 -97.9224 190.373 -97.4012L222.115 -60.3968C237.67 -86.59 260.597 -106.403 287.368 -115.721C274.655 -129.055 260.065 -140.004 244.124 -147.955C242.526 -146.031 240.286 -144.834 237.808 -144.834C237.678 -144.834 237.549 -144.838 237.421 -144.844C230.798 -120.874 212.878 -102.751 191.011 -99.0444ZM187.03 -93.5023C185.754 -92.6615 184.28 -92.1816 182.711 -92.1816C181.142 -92.1816 179.669 -92.6608 178.394 -93.5005L145.981 -55.7105C157.923 -33.7946 164.844 -7.81291 164.844 20.0171C164.844 47.8445 157.923 73.8239 145.981 95.7385L177.881 132.926C179.351 131.639 181.177 130.876 183.156 130.876C184.907 130.876 186.538 131.473 187.908 132.501L219.446 95.74C207.505 73.825 200.583 47.8449 200.583 20.0166C200.583 -7.81309 207.505 -33.7944 219.448 -55.7102L187.03 -93.5023ZM175.05 -97.3984C174.797 -97.9202 174.582 -98.4704 174.41 -99.0439C152.542 -102.75 134.621 -120.872 127.997 -144.844C127.871 -144.838 127.744 -144.834 127.616 -144.834C125.137 -144.834 122.898 -146.031 121.299 -147.956C105.358 -140.005 90.7686 -129.057 78.0554 -115.723C104.831 -106.407 127.758 -86.5942 143.312 -60.4004L175.05 -97.3984ZM143.309 100.434L174.979 137.353C174.793 137.9 174.646 138.47 174.543 139.059C153.102 142.631 135.435 160.054 128.456 183.284C128.18 183.253 127.9 183.238 127.616 183.238C124.659 183.238 122.043 184.941 120.449 187.551C104.84 179.639 90.5451 168.848 78.0594 155.755C104.829 146.437 127.755 126.625 143.309 100.434ZM132.872 185.271C139.204 163.994 155.297 147.99 174.875 144.576C176.09 148.539 179.34 151.376 183.156 151.376C186.922 151.376 190.137 148.613 191.389 144.732C210.585 148.453 226.308 164.303 232.547 185.275C230.404 187.145 229.016 190.128 229.016 193.488C229.016 193.809 229.028 194.127 229.053 194.441C214.402 199.742 198.837 202.598 182.711 202.598C166.585 202.598 151.021 199.743 136.371 194.444C136.396 194.129 136.409 193.81 136.409 193.488C136.409 190.126 135.019 187.14 132.872 185.271ZM236.96 183.285C230.081 160.394 212.82 143.135 191.797 139.222C191.65 138.312 191.4 137.443 191.062 136.635L222.117 100.432C237.67 126.622 260.593 146.432 287.36 155.751C274.875 168.844 260.581 179.636 244.974 187.548C243.38 184.94 240.764 183.238 237.808 183.238C237.522 183.238 237.239 183.254 236.96 183.285ZM139.912 -56.4363C124.444 -82.9017 101.185 -102.707 74.0137 -111.333C44.4758 -78.1031 26.0784 -31.4997 26.0784 20.0175C26.0784 71.5374 44.4777 118.139 74.0182 151.366C101.188 142.739 124.444 122.935 139.911 96.4721L74.3281 20.0185L139.912 -56.4363ZM142.554 91.7431L81.0278 20.0185L142.552 -51.7126C153.68 -30.873 160.113 -6.28798 160.113 20.0171C160.113 46.3206 153.681 70.9043 142.554 91.7431ZM246.579 192.752C246.593 192.995 246.601 193.24 246.601 193.488C246.601 198.204 243.866 202.178 240.145 203.372C240.162 204.036 240.17 204.702 240.17 205.371C240.17 242.3 214.387 272.357 182.709 272.357C151.031 272.357 125.248 242.3 125.248 205.371C125.248 204.701 125.256 204.034 125.273 203.37C121.555 202.173 118.824 198.201 118.824 193.488C118.824 193.24 118.831 192.995 118.846 192.752C101.721 184.115 86.1235 172.116 72.6706 157.473C63.2796 160.195 53.4605 161.641 43.3575 161.641C-6.34255 161.641 -49.1774 126.664 -67.9743 76.7178C-45.2028 213.833 58.5445 317.672 182.711 317.672C306.885 317.672 410.637 213.81 433.401 76.6918C414.612 126.651 371.778 161.64 322.069 161.64C311.966 161.64 302.147 160.195 292.756 157.472C279.302 172.116 263.705 184.116 246.579 192.752ZM129.978 205.371C129.978 204.696 129.988 204.024 130.006 203.354C131.896 202.733 133.529 201.393 134.672 199.603C149.852 205.132 165.988 208.113 182.711 208.113C199.434 208.113 215.571 205.132 230.752 199.603C231.894 201.391 233.524 202.73 235.412 203.352C235.431 204.022 235.44 204.695 235.44 205.371C235.44 239.268 211.787 266.842 182.709 266.842C153.632 266.842 129.978 239.268 129.978 205.371ZM225.522 96.4618C240.987 122.924 264.238 142.729 291.403 151.36C320.944 118.131 339.343 71.5296 339.343 20.0175C339.343 -31.4975 320.947 -78.0992 291.411 -111.329C264.242 -102.699 240.987 -82.8923 225.521 -56.4264L291.096 20.0185L225.522 96.4618ZM222.883 -51.7059C211.757 -30.8678 205.326 -6.28544 205.326 20.0166C205.326 46.3173 211.757 70.8986 222.882 91.736L284.409 20.0185L222.883 -51.7059ZM43.3575 -116.092C52.0287 -116.092 60.482 -114.984 68.6188 -112.884C39.4259 -78.827 21.3478 -31.8205 21.3478 20.0175C21.3478 71.8532 39.4293 118.86 68.6271 152.916C60.4877 155.018 52.0316 156.126 43.3575 156.126C-14.7775 156.126 -63.1287 106.35 -71.967 41.4331C-72.4003 34.3593 -72.6207 27.2179 -72.6207 20.0175C-72.6207 12.8167 -72.4003 5.67472 -71.9669 -1.39959C-63.1284 -66.3158 -14.7773 -116.092 43.3575 -116.092ZM322.082 156.125C313.404 156.125 304.944 155.016 296.801 152.913C325.995 118.859 344.073 71.856 344.073 20.0175C344.073 -31.8187 325.996 -78.8238 296.805 -112.881C304.947 -114.983 313.405 -116.092 322.082 -116.092C380.197 -116.092 428.525 -66.3497 437.385 -1.46552C437.821 5.6304 438.043 12.7943 438.043 20.0175C438.043 27.2396 437.822 34.4025 437.385 41.4973C428.526 106.382 380.197 156.125 322.082 156.125Z" fill="#6500FA"/>
</svg>
