<svg width="480" height="336" viewBox="0 0 480 336" fill="none" xmlns="http://www.w3.org/2000/svg">
<path fill-rule="evenodd" clip-rule="evenodd" d="M-103 -6.99194C-103 -196.127 50.877 -350 240 -350C429.123 -350 583 -196.127 583 -6.99191C583 182.143 429.123 336 240 336C50.8769 336 -103 182.143 -103 -6.99194ZM568.648 -70.7362C538.8 -224.931 402.786 -341.737 240 -341.737C77.2252 -341.737 -58.7823 -224.959 -88.6417 -70.7712C-63.9994 -126.93 -7.85383 -166.255 57.308 -166.255C70.5499 -166.255 83.419 -164.631 95.7268 -161.572C113.432 -178.107 133.971 -191.644 156.526 -201.366C156.342 -202.182 156.246 -203.031 156.246 -203.903C156.246 -209.191 159.81 -213.649 164.666 -215.006C164.666 -215.083 164.665 -215.161 164.665 -215.238L164.665 -215.428C164.665 -256.973 198.466 -290.757 239.996 -290.757C281.525 -290.757 315.327 -256.957 315.327 -215.428C315.327 -215.288 315.326 -215.149 315.326 -215.009C320.188 -213.656 323.757 -209.195 323.757 -203.903C323.757 -203.03 323.66 -202.18 323.476 -201.363C346.03 -191.64 366.567 -178.103 384.271 -161.569C396.582 -164.631 409.454 -166.256 422.698 -166.256C487.862 -166.256 544.014 -126.914 568.648 -70.7362ZM170.868 -215.009C170.867 -215.149 170.867 -215.288 170.867 -215.428C170.867 -253.547 201.876 -284.556 239.996 -284.556C278.116 -284.556 309.125 -253.547 309.125 -215.428C309.125 -215.354 309.125 -215.28 309.125 -215.206L309.124 -215.006C306.042 -214.145 303.481 -212.035 302.02 -209.257C282.399 -215.285 261.57 -218.531 239.998 -218.531C218.428 -218.531 197.601 -215.286 177.981 -209.259C176.519 -212.04 173.954 -214.151 170.868 -215.009ZM179.276 -203.167C179.043 -199.473 177.068 -196.25 174.164 -194.31C181.996 -169.951 202.999 -151.444 228.75 -147.215C229.9 -152.366 234.502 -156.219 240 -156.219C245.497 -156.219 250.098 -152.367 251.249 -147.216C276.998 -151.448 298 -169.957 305.829 -194.317C302.931 -196.256 300.96 -199.475 300.727 -203.164C281.527 -209.12 261.13 -212.329 239.998 -212.329C218.868 -212.329 198.474 -209.121 179.276 -203.167ZM250.882 -140.883C250.656 -140.239 250.375 -139.621 250.044 -139.035L291.659 -97.4205C312.05 -126.876 342.107 -149.157 377.202 -159.636C360.536 -174.631 341.409 -186.944 320.51 -195.885C318.414 -193.722 315.479 -192.376 312.23 -192.376C312.06 -192.376 311.891 -192.38 311.722 -192.387C303.039 -165.432 279.548 -145.053 250.882 -140.883ZM245.661 -134.65C243.989 -133.705 242.057 -133.166 240 -133.166C237.943 -133.166 236.012 -133.705 234.34 -134.649L191.846 -92.1513C207.502 -67.5059 216.575 -38.2884 216.575 -6.99233C216.575 24.3008 207.501 53.5158 191.847 78.1599L233.668 119.98C235.595 118.533 237.99 117.674 240.585 117.674C242.879 117.674 245.017 118.345 246.814 119.501L288.16 78.1606C272.506 53.5163 263.432 24.3008 263.432 -6.99293C263.432 -38.2882 272.506 -67.505 288.163 -92.1501L245.661 -134.65ZM229.956 -139.033C229.625 -139.619 229.343 -140.238 229.118 -140.882C200.448 -145.049 176.953 -165.429 168.27 -192.387C168.105 -192.38 167.939 -192.376 167.773 -192.376C164.523 -192.376 161.586 -193.723 159.49 -195.887C138.591 -186.946 119.464 -174.635 102.797 -159.64C137.898 -149.162 167.957 -126.882 188.348 -97.4254L229.956 -139.033ZM188.344 83.44L229.864 124.959C229.621 125.574 229.428 126.215 229.293 126.876C201.183 130.892 178.021 150.485 168.872 176.61C168.51 176.575 168.143 176.558 167.773 176.558C163.896 176.558 160.465 178.473 158.375 181.409C137.912 172.512 119.171 160.376 102.801 145.652C137.896 135.173 167.952 112.894 188.344 83.44ZM174.661 178.843C182.963 154.915 204.061 136.918 229.728 133.081C231.321 137.537 235.582 140.728 240.585 140.728C245.522 140.728 249.736 137.621 251.378 133.256C276.542 137.442 297.153 155.266 305.333 178.849C302.523 180.952 300.703 184.307 300.703 188.085C300.703 188.446 300.72 188.804 300.752 189.157C281.545 195.118 261.139 198.329 239.998 198.329C218.859 198.329 198.455 195.119 179.25 189.16C179.283 188.806 179.3 188.447 179.3 188.085C179.3 184.303 177.476 180.945 174.661 178.843ZM311.118 176.611C302.1 150.87 279.473 131.461 251.914 127.06C251.721 126.036 251.393 125.059 250.948 124.149L291.661 83.4373C312.05 112.889 342.102 135.167 377.192 145.647C360.825 160.371 342.085 172.507 321.625 181.405C319.535 178.472 316.105 176.558 312.23 176.558C311.855 176.558 311.484 176.576 311.118 176.611ZM183.89 -92.9675C163.611 -122.73 133.12 -145.002 97.4979 -154.702C58.774 -117.334 34.6553 -64.9255 34.6553 -6.99169C34.6553 50.945 58.7764 103.351 97.5036 140.716C133.122 131.015 163.611 108.744 183.889 78.9848L97.911 -6.99071L183.89 -92.9675ZM187.354 73.6667L106.694 -6.99071L187.351 -87.6555C201.94 -64.2204 210.373 -36.5735 210.373 -6.99233C210.373 22.5871 201.941 50.2326 187.354 73.6667ZM323.728 187.257C323.747 187.53 323.757 187.806 323.757 188.085C323.757 193.388 320.172 197.857 315.294 199.199C315.316 199.946 315.327 200.696 315.327 201.448C315.327 242.976 281.525 276.777 239.996 276.777C198.466 276.777 164.665 242.976 164.665 201.448C164.665 200.695 164.676 199.944 164.698 199.196C159.825 197.85 156.246 193.384 156.246 188.085C156.246 187.807 156.255 187.531 156.275 187.258C133.823 177.546 113.374 164.052 95.7368 147.584C83.4255 150.645 70.5529 152.271 57.308 152.271C-7.8456 152.271 -63.9998 112.94 -88.6436 56.7766C-58.7882 210.966 77.2216 327.736 240 327.736C402.787 327.737 538.802 210.942 568.648 56.7493C544.015 112.927 487.862 152.27 422.698 152.27C409.452 152.27 396.578 150.644 384.266 147.582C366.629 164.051 346.18 177.545 323.728 187.257ZM170.866 201.448C170.866 200.689 170.879 199.933 170.903 199.181C173.382 198.482 175.523 196.975 177.022 194.963C196.922 201.18 218.076 204.531 239.998 204.531C261.922 204.531 283.078 201.179 302.98 194.962C304.477 196.972 306.614 198.478 309.088 199.177C309.113 199.931 309.125 200.688 309.125 201.448C309.125 239.567 278.116 270.575 239.996 270.575C201.876 270.575 170.866 239.567 170.866 201.448ZM296.126 78.9724C316.399 108.731 346.881 131.002 382.493 140.708C421.219 103.341 445.34 50.9358 445.34 -6.99167C445.34 -64.9227 421.223 -117.328 382.503 -154.697C346.885 -144.992 316.399 -122.718 296.124 -92.9556L382.091 -6.9907L296.126 78.9724ZM292.666 -87.647C278.081 -64.2139 269.65 -36.5703 269.65 -6.99293C269.65 22.5831 278.08 50.2255 292.664 73.6578L373.324 -6.9907L292.666 -87.647ZM57.308 -160.054C68.6758 -160.054 79.758 -158.808 90.4253 -156.447C52.1537 -118.148 28.4535 -65.2863 28.4535 -6.99169C28.4535 51.3001 52.1581 104.162 90.4358 142.46C79.7653 144.823 68.6795 146.069 57.308 146.069C-18.9 146.069 -82.2837 90.102 -93.8779 17.1085C-94.4468 9.14795 -94.7362 1.11121 -94.7362 -6.99194C-94.7362 -15.0955 -94.4467 -23.1327 -93.8778 -31.0938C-82.2833 -104.087 -18.8998 -160.054 57.308 -160.054ZM422.715 146.068C411.337 146.068 400.245 144.821 389.57 142.456C427.841 104.16 451.541 51.303 451.541 -6.99167C451.541 -65.284 427.843 -118.143 389.574 -156.442C400.249 -158.807 411.339 -160.054 422.715 -160.054C498.895 -160.054 562.247 -104.128 573.872 -31.1729C574.445 -23.1859 574.736 -15.1223 574.736 -6.99191C574.736 1.13727 574.445 9.19971 573.872 17.1855C562.248 90.141 498.896 146.068 422.715 146.068Z" fill="url(#paint0_radial_662_45)"/>
<defs>
<radialGradient id="paint0_radial_662_45" cx="0" cy="0" r="1" gradientUnits="userSpaceOnUse" gradientTransform="translate(240 131) rotate(90) scale(469.5 725.248)">
<stop stop-color="#6500FA"/>
<stop offset="0.174519" stop-color="#6400F9"/>
<stop offset="0.302815" stop-color="#6300F5"/>
<stop offset="0.392" stop-color="#6100EF"/>
<stop offset="0.449185" stop-color="#5E00E8"/>
<stop offset="0.481481" stop-color="#5A00E0"/>
<stop offset="0.496" stop-color="#5600D6"/>
<stop offset="0.499852" stop-color="#5200CC"/>
<stop offset="0.500148" stop-color="#4E00C2"/>
<stop offset="0.504" stop-color="#4A00B8"/>
<stop offset="0.518519" stop-color="#4600AE"/>
<stop offset="0.550815" stop-color="#4300A6"/>
<stop offset="0.608" stop-color="#40009F"/>
<stop offset="0.697185" stop-color="#3E0099"/>
<stop offset="0.825481" stop-color="#3C0095"/>
<stop offset="1" stop-color="#3C0094"/>
</radialGradient>
</defs>
</svg>
