<svg width="692" height="864" viewBox="0 0 692 864" fill="none" xmlns="http://www.w3.org/2000/svg">
<path d="M1503.97 432.014C1503.97 846.675 1166.62 1183.99 751.994 1183.99C337.369 1183.99 0.015574 846.675 0.0155921 432.014C0.0158544 17.3526 337.369 -320 751.994 -320C1166.62 -320 1503.97 17.3525 1503.97 432.014ZM424.1 759.67C340.183 675.705 288.214 559.812 288.214 432.014C288.214 304.209 340.173 188.315 424.077 104.348C400.69 99.1702 376.394 96.4384 351.471 96.4384C184.39 96.4385 45.4287 219.15 20.0166 379.188C18.7699 396.637 18.1328 414.253 18.1328 432.014C18.1328 449.772 18.7702 467.386 20.0166 484.832C45.4272 644.872 184.389 767.585 351.471 767.585C376.402 767.585 400.706 764.851 424.1 759.67ZM1472.51 571.751C1418.51 694.921 1295.4 781.182 1152.53 781.182C1123.49 781.182 1095.27 777.616 1068.28 770.903C1029.61 807.008 984.783 836.592 935.56 857.885C935.603 858.485 935.625 859.09 935.625 859.701L935.617 860.353C935.33 871.694 927.563 881.181 917.067 884.068C917.116 885.706 917.141 887.349 917.141 888.998C917.141 980.045 843.036 1054.15 751.988 1054.15C660.941 1054.15 586.836 980.045 586.836 888.998C586.836 887.347 586.864 885.702 586.912 884.063C576.225 881.116 568.371 871.323 568.371 859.701C568.371 859.09 568.395 858.483 568.437 857.883C519.217 836.59 474.389 807.007 435.723 770.903C408.731 777.616 380.509 781.182 351.471 781.182C208.629 781.181 85.5191 694.95 31.4921 571.814C96.9437 909.864 395.123 1165.88 751.994 1165.88C1108.88 1165.88 1407.08 909.81 1472.51 571.751ZM1472.51 292.269C1407.07 -45.7932 1108.88 -301.883 751.994 -301.883C395.133 -301.883 96.9592 -45.8575 31.497 292.185C85.5211 169.062 208.612 82.8418 351.471 82.8417C380.503 82.8417 408.718 86.4045 435.702 93.1122C474.517 56.8633 519.542 27.1836 568.988 5.86907C568.586 4.07848 568.371 2.21645 568.371 0.304616C568.371 -11.2919 576.19 -21.0689 586.842 -24.0401C586.84 -24.3478 586.836 -24.6558 586.836 -24.9639C586.836 -116.047 660.941 -190.116 751.988 -190.116C843.036 -190.116 917.141 -116.011 917.141 -24.9639C917.141 -24.6574 917.136 -24.3511 917.135 -24.045C927.796 -21.0803 935.625 -11.2991 935.625 0.304632C935.625 2.21781 935.411 4.08124 935.008 5.87299C984.453 27.1883 1029.48 56.867 1068.29 93.1162C1095.28 86.4056 1123.5 82.8417 1152.53 82.8418C1295.39 82.8418 1418.5 169.1 1472.51 292.269ZM628.983 243.52C584.526 178.27 517.679 129.44 439.584 108.172C354.687 190.099 301.811 304.999 301.811 432.014C301.811 559.034 354.692 673.929 439.595 755.848C517.684 734.579 584.525 685.753 628.98 620.508L440.488 432.017L628.983 243.52ZM729.98 142.523C729.254 141.237 728.637 139.881 728.142 138.468C665.287 129.334 613.78 84.6528 594.742 25.5497C594.378 25.5654 594.011 25.5751 593.643 25.5751C586.52 25.5751 580.085 22.624 575.49 17.8798C529.673 37.482 487.741 64.4734 451.201 97.3476C528.156 120.319 594.053 169.166 638.758 233.747L729.98 142.523ZM638.748 630.275C594.043 694.85 528.15 743.695 451.21 766.669C487.096 798.95 528.184 825.555 573.044 845.061C577.626 838.628 585.146 834.431 593.643 834.431C594.458 834.431 595.265 834.469 596.06 834.545C616.119 777.271 666.893 734.316 728.519 725.51C728.816 724.057 729.239 722.65 729.774 721.3L638.748 630.275ZM687.044 432.012C687.044 367.158 668.556 306.545 636.572 255.166L459.743 432.017L636.577 608.849C668.557 557.471 687.044 496.862 687.044 432.012ZM903.544 -24.9639C903.544 -108.537 835.561 -176.52 751.988 -176.52C668.415 -176.52 600.432 -108.537 600.432 -24.9639C600.432 -24.6561 600.437 -24.3485 600.438 -24.0411C607.2 -22.1564 612.82 -17.5292 616.024 -11.4346C659.041 -24.6496 704.702 -31.7657 751.994 -31.7657C799.289 -31.7657 844.953 -24.6493 887.972 -11.4327C891.173 -17.5223 896.785 -22.1469 903.539 -24.0352C903.541 -24.3446 903.544 -24.6541 903.544 -24.9639ZM903.544 888.998C903.544 887.332 903.515 885.673 903.462 884.019C898.038 882.484 893.356 879.183 890.074 874.777C846.442 888.409 800.061 895.759 751.994 895.759C703.931 895.759 657.553 888.409 613.924 874.777C610.638 879.189 605.948 882.492 600.516 884.025C600.462 885.676 600.432 887.334 600.432 888.998C600.432 972.571 668.415 1040.55 751.988 1040.55C835.561 1040.55 903.544 972.571 903.544 888.998ZM896.318 21.3183C889.966 17.0659 885.648 10.0112 885.136 1.92475C843.042 -11.1336 798.324 -18.169 751.994 -18.169C705.668 -18.169 660.953 -11.1337 618.861 1.92278C618.349 10.0166 614.025 17.0774 607.663 21.329C624.832 74.7374 670.88 115.312 727.337 124.585C729.861 113.292 739.946 104.847 751.998 104.847C764.049 104.847 774.135 113.291 776.66 124.583C833.112 115.303 879.154 74.7258 896.318 21.3183ZM895.228 839.457C877.296 787.749 832.109 748.669 776.936 739.494C773.338 749.063 764.1 755.876 753.275 755.876C742.308 755.876 732.97 748.881 729.476 739.112C673.204 747.527 626.95 786.984 608.752 839.445C614.92 844.054 618.914 851.413 618.914 859.701C618.914 860.495 618.876 861.28 618.805 862.055C660.913 875.12 705.647 882.162 751.994 882.162C798.345 882.162 843.082 875.119 885.192 862.05C885.121 861.276 885.082 860.493 885.082 859.701C885.082 851.42 889.07 844.067 895.228 839.457ZM764.41 152.132C760.743 154.204 756.509 155.39 751.998 155.39C747.49 155.39 743.257 154.205 739.592 152.135L646.428 245.31C680.749 299.342 700.641 363.398 700.641 432.012C700.641 500.619 680.747 564.669 646.428 618.699L738.116 710.387C742.34 707.214 747.589 705.333 753.275 705.333C758.306 705.333 762.995 706.805 766.934 709.341L857.578 618.707C823.255 564.676 803.359 500.622 803.359 432.012C803.359 363.397 823.258 299.341 857.584 245.308L764.41 152.132ZM1052.79 97.3535C1016.25 64.4781 974.322 37.4859 928.504 17.8828C923.91 22.6254 917.475 25.5751 910.354 25.5751C909.979 25.5751 909.607 25.5659 909.236 25.5497C890.201 84.6465 838.701 129.324 775.856 138.465C775.362 139.878 774.745 141.234 774.019 142.52L865.25 233.753C909.956 169.175 975.85 120.327 1052.79 97.3535ZM1052.77 766.662C975.839 743.686 909.954 694.844 865.253 630.275L775.996 719.532C776.97 721.526 777.689 723.667 778.111 725.913C838.534 735.56 888.141 778.111 907.913 834.548C908.716 834.471 909.53 834.431 910.353 834.431C918.847 834.431 926.366 838.625 930.948 845.055C975.804 825.547 1016.89 798.941 1052.77 766.662ZM867.456 255.18C835.478 306.556 816.992 367.164 816.992 432.012C816.992 496.856 835.476 557.461 867.451 608.835L1044.29 432.017L867.456 255.18ZM1202.18 432.014C1202.18 305.005 1149.3 190.109 1064.42 108.183C986.327 129.458 919.49 178.291 875.039 243.542L1063.51 432.017L875.042 620.486C919.488 685.728 986.317 734.556 1064.39 755.834C1149.3 673.91 1202.18 559.015 1202.18 432.014ZM1485.86 432.014C1485.86 414.199 1485.22 396.53 1483.96 379.029C1458.49 219.068 1319.59 96.4384 1152.56 96.4384C1127.63 96.4385 1103.32 99.1733 1079.92 104.356C1163.82 188.323 1215.77 304.213 1215.77 432.014C1215.77 559.82 1163.81 675.705 1079.91 759.664C1103.31 764.849 1127.62 767.585 1152.56 767.585C1319.59 767.585 1458.49 644.954 1483.96 484.991C1485.22 467.493 1485.86 449.826 1485.86 432.014Z" fill="#5933FF"/>
</svg>
