<svg width="17" height="17" viewBox="0 0 17 17" fill="none" xmlns="http://www.w3.org/2000/svg">
<path d="M1.58333 15.7915C1.19944 15.7915 0.870833 15.6548 0.5975 15.3815C0.324167 15.1082 0.1875 14.7796 0.1875 14.3957V3.56234C0.1875 3.18817 0.326597 2.86199 0.604792 2.5838C0.882986 2.3056 1.20917 2.1665 1.58333 2.1665H3.1875V0.864421C3.1875 0.672754 3.25549 0.508517 3.39146 0.371712C3.52743 0.234906 3.69063 0.166504 3.88104 0.166504C4.07146 0.166504 4.23611 0.234906 4.375 0.371712C4.51389 0.508517 4.58333 0.672754 4.58333 0.864421V2.1665H9.41667V0.864421C9.41667 0.672754 9.48465 0.508517 9.62062 0.371712C9.7566 0.234906 9.91979 0.166504 10.1102 0.166504C10.3006 0.166504 10.4653 0.234906 10.6042 0.371712C10.7431 0.508517 10.8125 0.672754 10.8125 0.864421V2.1665H12.4167C12.7908 2.1665 13.117 2.3056 13.3952 2.5838C13.6734 2.86199 13.8125 3.18817 13.8125 3.56234V7.23942C13.8125 7.43109 13.7445 7.59532 13.6085 7.73213C13.4726 7.86893 13.3094 7.93734 13.119 7.93734C12.9285 7.93734 12.7639 7.86893 12.625 7.73213C12.4861 7.59532 12.4167 7.43109 12.4167 7.23942V7.0415H1.58333V14.3957H6.73958C6.93125 14.3957 7.09549 14.4637 7.23229 14.5996C7.3691 14.7356 7.4375 14.8988 7.4375 15.0892C7.4375 15.2796 7.3691 15.4443 7.23229 15.5832C7.09549 15.7221 6.93125 15.7915 6.73958 15.7915H1.58333ZM12.1619 16.7915C11.0887 16.7915 10.1788 16.4166 9.43229 15.6669C8.68576 14.9173 8.3125 14.0059 8.3125 12.9325C8.3125 11.8594 8.68736 10.9495 9.43708 10.203C10.1867 9.45644 11.0981 9.08317 12.1715 9.08317C13.2447 9.08317 14.1545 9.45803 14.901 10.2078C15.6476 10.9573 16.0208 11.8688 16.0208 12.9421C16.0208 14.0153 15.646 14.9252 14.8963 15.6717C14.1467 16.4182 13.2352 16.7915 12.1619 16.7915ZM12.6458 12.7498V11.4869C12.6458 11.3553 12.5969 11.2412 12.499 11.1446C12.401 11.0481 12.2868 10.9998 12.1562 10.9998C12.0257 10.9998 11.9115 11.0488 11.8135 11.1467C11.7156 11.2446 11.6667 11.3589 11.6667 11.4894V12.854C11.6667 12.9579 11.6875 13.0516 11.7292 13.135C11.7708 13.2185 11.823 13.2916 11.8856 13.3542L12.9375 14.3957C13.0328 14.4859 13.1486 14.5311 13.285 14.5311C13.4214 14.5311 13.5347 14.4859 13.625 14.3957C13.7153 14.3054 13.7604 14.1921 13.7604 14.0557C13.7604 13.9193 13.7153 13.8034 13.625 13.7082L12.6458 12.7498Z" fill="#F6F6F7"/>
</svg>
