<svg width="11" height="8" viewBox="0 0 11 8" fill="none" xmlns="http://www.w3.org/2000/svg">
<path d="M10.3979 1.77299L4.39795 7.77299C4.34569 7.82543 4.28359 7.86704 4.21522 7.89543C4.14685 7.92382 4.07354 7.93843 3.99951 7.93843C3.92548 7.93843 3.85217 7.92382 3.7838 7.89543C3.71543 7.86704 3.65333 7.82543 3.60107 7.77299L0.976073 5.14799C0.92375 5.09566 0.882244 5.03355 0.853927 4.96518C0.82561 4.89682 0.811035 4.82355 0.811035 4.74955C0.811035 4.67555 0.82561 4.60228 0.853927 4.53392C0.882244 4.46555 0.92375 4.40344 0.976073 4.35111C1.0284 4.29879 1.09051 4.25728 1.15888 4.22897C1.22724 4.20065 1.30051 4.18607 1.37451 4.18607C1.44851 4.18607 1.52178 4.20065 1.59014 4.22897C1.65851 4.25728 1.72062 4.29879 1.77295 4.35111L3.99998 6.57814L9.60201 0.97705C9.70768 0.871378 9.851 0.812012 10.0004 0.812012C10.1499 0.812012 10.2932 0.871378 10.3989 0.97705C10.5046 1.08272 10.5639 1.22604 10.5639 1.37549C10.5639 1.52493 10.5046 1.66825 10.3989 1.77393L10.3979 1.77299Z" fill="white"/>
</svg>
