<svg width="630" height="631" viewBox="0 0 630 631" fill="none" xmlns="http://www.w3.org/2000/svg">
<g filter="url(#filter0_f_468_35541)">
<path fill-rule="evenodd" clip-rule="evenodd" d="M7.99413 315.011C7.99413 145.721 145.722 7.99352 314.997 7.99353C484.272 7.99354 622 145.721 622 315.011C622 484.301 484.272 622.014 314.997 622.014C145.722 622.014 7.99412 484.301 7.99413 315.011ZM609.157 257.971C582.448 119.947 460.705 15.39 314.997 15.39C169.309 15.39 47.5774 119.909 20.8476 257.914C42.9059 207.653 93.1564 172.458 151.476 172.458C163.33 172.458 174.85 173.912 185.867 176.651C201.713 161.852 220.095 149.736 240.282 141.034C240.117 140.303 240.03 139.542 240.03 138.761C240.03 134.027 243.222 130.036 247.57 128.823C247.569 128.697 247.569 128.571 247.569 128.445C247.569 91.2594 277.823 61.0197 314.994 61.0198C352.165 61.0198 382.419 91.2739 382.419 128.445L382.419 128.561L382.419 128.673L382.418 128.82C386.769 130.032 389.964 134.025 389.964 138.761C389.964 139.542 389.878 140.302 389.713 141.034C409.9 149.736 428.283 161.852 444.129 176.651C455.146 173.912 466.666 172.458 478.518 172.458C536.849 172.458 587.112 207.68 609.157 257.971ZM253.121 128.821C253.12 128.696 253.119 128.57 253.119 128.445C253.119 94.3255 280.874 66.5707 314.994 66.5707C349.113 66.5707 376.868 94.3255 376.868 128.445L376.868 128.576C376.868 128.659 376.867 128.741 376.867 128.823C374.109 129.594 371.817 131.482 370.509 133.968C352.947 128.573 334.306 125.668 314.998 125.668C295.69 125.668 277.048 128.573 259.486 133.968C258.177 131.48 255.882 129.59 253.121 128.821ZM260.644 139.422C260.435 142.727 258.669 145.61 256.071 147.346C263.08 169.15 281.88 185.715 304.928 189.501C305.958 184.89 310.077 181.442 314.997 181.442C319.918 181.442 324.036 184.889 325.066 189.5C348.113 185.712 366.91 169.145 373.918 147.342C371.323 145.606 369.559 142.724 369.351 139.421C352.166 134.091 333.911 131.219 314.998 131.219C296.084 131.219 277.829 134.091 260.644 139.422ZM324.738 195.168C324.536 195.744 324.284 196.298 323.988 196.823L361.233 234.068C379.485 207.703 406.388 187.761 437.802 178.382C422.884 164.96 405.765 153.94 387.059 145.937C385.183 147.874 382.555 149.078 379.647 149.078C379.495 149.078 379.343 149.075 379.192 149.068C371.421 173.195 350.395 191.436 324.738 195.168ZM320.065 200.747C318.568 201.593 316.839 202.076 314.997 202.076C313.157 202.076 311.429 201.594 309.932 200.748L271.896 238.789C285.907 260.848 294.028 286.999 294.028 315.01C294.028 343.019 285.907 369.168 271.896 391.226L309.331 428.66C311.055 427.364 313.199 426.596 315.521 426.596C317.575 426.596 319.488 427.197 321.096 428.232L358.101 391.232C344.088 369.173 335.966 343.022 335.966 315.01C335.966 286.997 344.089 260.845 358.103 238.785L320.065 200.747ZM306.008 196.825C305.712 196.3 305.46 195.746 305.257 195.169C279.597 191.44 258.568 173.198 250.795 149.069C250.647 149.075 250.498 149.078 250.348 149.078C247.44 149.078 244.812 147.874 242.936 145.937C224.231 153.94 207.112 164.96 192.195 178.381C223.612 187.76 250.514 207.702 268.765 234.068L306.008 196.825ZM268.761 395.952L305.925 433.116C305.707 433.667 305.535 434.241 305.414 434.833C280.254 438.427 259.523 455.965 251.334 479.348C251.009 479.317 250.68 479.301 250.348 479.301C246.879 479.301 243.808 481.015 241.938 483.642C223.623 475.678 206.849 464.816 192.199 451.637C223.61 442.257 250.51 422.315 268.761 395.952ZM256.515 481.348C263.945 459.931 282.83 443.821 305.803 440.386C307.23 444.375 311.043 447.231 315.521 447.231C319.94 447.231 323.712 444.45 325.181 440.544C347.705 444.29 366.153 460.243 373.474 481.353C370.958 483.234 369.33 486.237 369.33 489.619C369.33 489.943 369.345 490.263 369.374 490.579C352.183 495.914 333.92 498.788 314.998 498.788C296.076 498.788 277.812 495.914 260.621 490.58C260.65 490.263 260.665 489.943 260.665 489.619C260.665 486.234 259.034 483.23 256.515 481.348ZM378.652 479.349C370.58 456.309 350.328 438.937 325.661 434.998C325.488 434.081 325.194 433.206 324.797 432.392L361.234 395.955C379.485 422.316 406.384 442.256 437.793 451.636C423.142 464.814 406.369 475.677 388.056 483.641C386.185 481.015 383.116 479.301 379.647 479.301C379.311 479.301 378.98 479.318 378.652 479.349ZM264.775 238.058C246.625 211.419 219.335 191.484 187.452 182.8C152.793 216.248 131.206 263.156 131.206 315.011C131.206 366.868 152.795 413.775 187.457 447.219C219.337 438.535 246.625 418.601 264.773 391.964L187.821 315.012L264.775 238.058ZM267.875 387.204L195.682 315.012L267.873 242.813C280.929 263.789 288.477 288.534 288.477 315.01C288.477 341.485 280.93 366.229 267.875 387.204ZM389.938 488.879C389.956 489.123 389.964 489.37 389.964 489.619C389.964 494.366 386.755 498.366 382.389 499.567C382.409 500.236 382.419 500.906 382.419 501.58C382.419 538.751 352.165 569.005 314.994 569.005C277.823 569.005 247.569 538.751 247.569 501.58C247.569 500.906 247.578 500.234 247.598 499.565C243.236 498.361 240.03 494.363 240.03 489.619C240.03 489.369 240.039 489.122 240.057 488.876C219.962 480.183 201.661 468.105 185.876 453.366C174.855 456.107 163.332 457.562 151.476 457.562C93.1634 457.562 42.905 422.363 20.8454 372.097C47.571 510.104 169.305 614.618 314.997 614.618C460.705 614.618 582.449 510.07 609.157 372.049C587.113 422.34 536.849 457.562 478.518 457.562C466.664 457.562 455.143 456.108 444.124 453.368C428.338 468.108 410.035 480.186 389.938 488.879ZM253.119 501.58C253.119 500.9 253.13 500.224 253.152 499.55C255.371 498.924 257.286 497.575 258.628 495.773C276.44 501.339 295.375 504.339 314.998 504.339C334.621 504.339 353.556 501.34 371.368 495.775C372.708 497.574 374.621 498.921 376.835 499.548C376.857 500.222 376.868 500.9 376.868 501.58C376.868 535.699 349.113 563.454 314.994 563.454C280.874 563.454 253.119 535.699 253.119 501.58ZM365.231 391.958C383.377 418.594 410.661 438.529 442.537 447.215C477.2 413.769 498.79 366.861 498.79 315.011C498.79 263.158 477.204 216.25 442.546 182.803C410.666 191.488 383.377 211.425 365.229 238.064L442.177 315.012L365.231 391.958ZM362.134 242.816C349.078 263.791 341.531 288.535 341.531 315.01C341.531 341.484 349.077 366.227 362.132 387.201L434.33 315.012L362.134 242.816ZM151.476 178.009C161.652 178.009 171.573 179.124 181.122 181.238C146.868 215.519 125.655 262.833 125.655 315.011C125.655 367.186 146.871 414.5 181.131 448.78C171.579 450.896 161.656 452.011 151.476 452.011C83.2746 452.011 26.5487 401.93 16.1607 336.608C15.6503 329.474 15.3907 322.272 15.3907 315.011C15.3907 307.749 15.6503 300.546 16.1609 293.411C26.5495 228.09 83.275 178.009 151.476 178.009ZM478.532 452.011C468.351 452.011 458.425 450.895 448.872 448.779C483.127 414.502 504.341 367.19 504.341 315.011C504.341 262.835 483.129 215.521 448.876 181.241C458.428 179.125 468.352 178.009 478.532 178.009C546.733 178.009 603.447 228.09 613.833 293.411C614.344 300.545 614.604 307.748 614.604 315.011C614.604 322.273 614.344 329.475 613.833 336.608C603.447 401.93 546.733 452.011 478.532 452.011Z" fill="url(#paint0_radial_468_35541)" fill-opacity="0.5"/>
</g>
<defs>
<filter id="filter0_f_468_35541" x="-0.00585938" y="-0.00646973" width="630.006" height="630.02" filterUnits="userSpaceOnUse" color-interpolation-filters="sRGB">
<feFlood flood-opacity="0" result="BackgroundImageFix"/>
<feBlend mode="normal" in="SourceGraphic" in2="BackgroundImageFix" result="shape"/>
<feGaussianBlur stdDeviation="4" result="effect1_foregroundBlur_468_35541"/>
</filter>
<radialGradient id="paint0_radial_468_35541" cx="0" cy="0" r="1" gradientUnits="userSpaceOnUse" gradientTransform="translate(340.811 258.398) rotate(77.9101) scale(371.864 371.855)">
<stop offset="0.62" stop-color="#8533FF"/>
<stop offset="1" stop-color="#210051"/>
</radialGradient>
</defs>
</svg>
