<svg width="540" height="540" viewBox="0 0 540 540" fill="none" xmlns="http://www.w3.org/2000/svg">
<path fill-rule="evenodd" clip-rule="evenodd" d="M-0.00245321 270.01C-0.0024467 121.126 121.124 -1.83093e-05 269.995 -1.1802e-05C418.866 -5.29459e-06 539.992 121.126 539.992 270.01C539.992 418.894 418.866 540.007 269.995 540.007C121.124 540.007 -0.00245972 418.894 -0.00245321 270.01ZM528.697 219.845C505.208 98.4588 398.139 6.50488 269.995 6.50487C141.867 6.50486 34.8092 98.4258 11.3016 219.796C30.701 175.593 74.8945 144.64 126.184 144.64C136.609 144.64 146.741 145.919 156.43 148.328C170.366 135.313 186.532 124.657 204.286 117.004C204.141 116.361 204.064 115.692 204.064 115.005C204.064 110.842 206.871 107.332 210.695 106.264C210.694 106.154 210.694 106.043 210.694 105.932C210.694 73.2291 237.301 46.6345 269.992 46.6345C302.682 46.6345 329.29 73.2419 329.29 105.932C329.29 106.043 329.289 106.153 329.289 106.263C333.116 107.328 335.926 110.839 335.926 115.005C335.926 115.692 335.849 116.361 335.705 117.004C353.458 124.657 369.625 135.313 383.562 148.328C393.251 145.919 403.382 144.64 413.805 144.64C465.105 144.64 509.31 175.616 528.697 219.845ZM215.577 106.263C215.576 106.153 215.576 106.043 215.576 105.932C215.576 75.9257 239.985 51.5164 269.992 51.5164C299.999 51.5164 324.408 75.9257 324.408 105.932C324.408 106.043 324.407 106.154 324.407 106.265C321.981 106.943 319.965 108.603 318.816 110.79C303.371 106.045 286.976 103.49 269.996 103.49C253.015 103.49 236.62 106.045 221.175 110.79C220.024 108.601 218.005 106.94 215.577 106.263ZM222.193 115.586C222.01 118.493 220.456 121.029 218.171 122.555C224.336 141.731 240.869 156.299 261.14 159.629C262.046 155.574 265.668 152.541 269.995 152.541C274.322 152.541 277.944 155.573 278.85 159.628C299.119 156.296 315.651 141.727 321.813 122.551C319.532 121.024 317.98 118.49 317.797 115.586C302.684 110.898 286.629 108.372 269.996 108.372C253.362 108.372 237.307 110.898 222.193 115.586ZM278.561 164.613C278.384 165.12 278.162 165.606 277.902 166.068L310.658 198.824C326.71 175.637 350.37 158.098 377.997 149.85C364.878 138.046 349.822 128.354 333.371 121.316C331.721 123.019 329.41 124.079 326.852 124.079C326.718 124.079 326.585 124.076 326.452 124.07C319.617 145.288 301.126 161.331 278.561 164.613ZM274.452 169.519C273.136 170.263 271.615 170.688 269.995 170.688C268.377 170.688 266.857 170.264 265.541 169.521L232.089 202.976C244.412 222.376 251.553 245.374 251.553 270.009C251.553 294.642 244.411 317.639 232.09 337.038L265.012 369.96C266.528 368.821 268.414 368.145 270.456 368.145C272.262 368.145 273.945 368.673 275.359 369.584L307.903 337.043C295.579 317.643 288.436 294.644 288.436 270.009C288.436 245.373 295.58 222.373 307.905 202.972L274.452 169.519ZM262.09 166.07C261.829 165.608 261.607 165.121 261.429 164.614C238.862 161.334 220.367 145.291 213.532 124.07C213.437 124.074 213.342 124.077 213.247 124.078C213.23 124.078 213.213 124.078 213.196 124.078C213.177 124.079 213.157 124.079 213.138 124.079C210.581 124.079 208.27 123.02 206.62 121.316C190.169 128.354 175.114 138.046 161.995 149.849C189.625 158.097 213.285 175.636 229.336 198.824L262.09 166.07ZM229.332 341.195L262.017 373.879C261.825 374.363 261.674 374.868 261.567 375.389C239.44 378.55 221.207 393.974 214.005 414.538C213.72 414.511 213.43 414.497 213.138 414.497C210.087 414.497 207.387 416.004 205.742 418.315C189.635 411.311 174.883 401.757 161.998 390.167C189.623 381.918 213.281 364.38 229.332 341.195ZM218.562 416.297C225.096 397.461 241.705 383.294 261.909 380.273C263.164 383.781 266.518 386.292 270.456 386.292C274.342 386.292 277.659 383.847 278.951 380.411C298.76 383.706 314.984 397.737 321.423 416.301C319.211 417.956 317.778 420.597 317.778 423.571C317.778 423.856 317.792 424.137 317.817 424.415C302.699 429.107 286.637 431.635 269.996 431.635C253.354 431.635 237.292 429.108 222.173 424.416C222.199 424.138 222.212 423.856 222.212 423.571C222.212 420.594 220.777 417.952 218.562 416.297ZM325.977 414.539C318.878 394.276 301.067 378.998 279.373 375.534C279.222 374.727 278.963 373.958 278.613 373.242L310.659 341.197C326.709 364.38 350.366 381.917 377.989 390.166C365.105 401.756 350.353 411.31 334.248 418.314C332.602 416.004 329.903 414.497 326.852 414.497C326.557 414.497 326.265 414.511 325.977 414.539ZM225.826 202.333C209.865 178.905 185.864 161.372 157.824 153.736C127.343 183.152 108.358 224.406 108.358 270.01C108.358 315.616 127.344 356.869 157.828 386.282C185.865 378.645 209.864 361.113 225.825 337.687L158.149 270.011L225.826 202.333ZM228.553 333.501L165.062 270.011L228.551 206.515C240.034 224.962 246.672 246.724 246.672 270.009C246.672 293.293 240.035 315.054 228.553 333.501ZM335.903 422.92C335.918 423.135 335.926 423.352 335.926 423.571C335.926 427.746 333.103 431.264 329.263 432.32C329.281 432.908 329.29 433.498 329.29 434.09C329.29 466.781 302.682 493.388 269.992 493.388C237.301 493.388 210.694 466.781 210.694 434.09C210.694 433.497 210.702 432.907 210.72 432.318C206.883 431.26 204.064 427.743 204.064 423.571C204.064 423.452 204.067 423.334 204.071 423.216C204.073 423.178 204.074 423.14 204.076 423.102L204.077 423.096C204.08 423.037 204.083 422.977 204.088 422.918C186.415 415.273 170.32 404.651 156.438 391.688C146.746 394.099 136.611 395.378 126.184 395.378C74.9007 395.378 30.7002 364.422 11.2998 320.215C34.8037 441.587 141.864 533.502 269.995 533.502C398.139 533.502 505.208 441.558 528.697 320.173C509.31 364.402 465.105 395.378 413.805 395.378C403.38 395.378 393.248 394.099 383.557 391.689C369.674 404.653 353.577 415.275 335.903 422.92ZM215.576 434.09C215.576 433.493 215.585 432.898 215.604 432.305C217.555 431.755 219.24 430.568 220.42 428.984C236.086 433.879 252.738 436.517 269.996 436.517C287.253 436.517 303.906 433.879 319.571 428.985C320.75 430.567 322.431 431.752 324.379 432.303C324.398 432.896 324.408 433.492 324.408 434.09C324.408 464.097 299.998 488.506 269.992 488.506C239.985 488.506 215.576 464.097 215.576 434.09ZM314.174 337.682C330.132 361.107 354.128 378.639 382.162 386.278C412.646 356.864 431.634 315.61 431.634 270.01C431.634 224.407 412.65 183.154 382.17 153.738C354.132 161.377 330.133 178.91 314.172 202.338L381.845 270.011L314.174 337.682ZM311.45 206.517C299.968 224.964 293.331 246.725 293.331 270.009C293.331 293.292 299.967 315.053 311.448 333.499L374.944 270.011L311.45 206.517ZM126.184 149.522C135.134 149.522 143.859 150.503 152.257 152.362C122.131 182.511 103.476 224.122 103.476 270.01C103.476 315.896 122.135 357.507 152.265 387.655C143.864 389.515 135.137 390.497 126.184 390.497C66.2036 390.497 16.3151 346.451 7.17967 289.002C6.73082 282.729 6.50255 276.396 6.50255 270.01C6.50255 263.624 6.73088 257.289 7.17986 251.015C16.3157 193.567 66.2039 149.522 126.184 149.522ZM413.818 390.497C404.864 390.497 396.134 389.515 387.732 387.654C417.859 357.508 436.515 315.899 436.515 270.01C436.515 224.123 417.861 182.513 387.736 152.364C396.137 150.503 404.865 149.522 413.818 149.522C473.797 149.522 523.674 193.565 532.81 251.011C533.259 257.287 533.487 263.622 533.487 270.01C533.487 276.397 533.259 282.732 532.81 289.006C523.675 346.453 473.797 390.497 413.818 390.497Z" fill="#493969"/>
<path fill-rule="evenodd" clip-rule="evenodd" d="M-0.00245321 270.01C-0.0024467 121.126 121.124 -1.83093e-05 269.995 -1.1802e-05C418.866 -5.29459e-06 539.992 121.126 539.992 270.01C539.992 418.894 418.866 540.007 269.995 540.007C121.124 540.007 -0.00245972 418.894 -0.00245321 270.01ZM528.697 219.845C505.208 98.4588 398.139 6.50488 269.995 6.50487C141.867 6.50486 34.8092 98.4258 11.3016 219.796C30.701 175.593 74.8945 144.64 126.184 144.64C136.609 144.64 146.741 145.919 156.43 148.328C170.366 135.313 186.532 124.657 204.286 117.004C204.141 116.361 204.064 115.692 204.064 115.005C204.064 110.842 206.871 107.332 210.695 106.264C210.694 106.154 210.694 106.043 210.694 105.932C210.694 73.2291 237.301 46.6345 269.992 46.6345C302.682 46.6345 329.29 73.2419 329.29 105.932C329.29 106.043 329.289 106.153 329.289 106.263C333.116 107.328 335.926 110.839 335.926 115.005C335.926 115.692 335.849 116.361 335.705 117.004C353.458 124.657 369.625 135.313 383.562 148.328C393.251 145.919 403.382 144.64 413.805 144.64C465.105 144.64 509.31 175.616 528.697 219.845ZM215.577 106.263C215.576 106.153 215.576 106.043 215.576 105.932C215.576 75.9257 239.985 51.5164 269.992 51.5164C299.999 51.5164 324.408 75.9257 324.408 105.932C324.408 106.043 324.407 106.154 324.407 106.265C321.981 106.943 319.965 108.603 318.816 110.79C303.371 106.045 286.976 103.49 269.996 103.49C253.015 103.49 236.62 106.045 221.175 110.79C220.024 108.601 218.005 106.94 215.577 106.263ZM222.193 115.586C222.01 118.493 220.456 121.029 218.171 122.555C224.336 141.731 240.869 156.299 261.14 159.629C262.046 155.574 265.668 152.541 269.995 152.541C274.322 152.541 277.944 155.573 278.85 159.628C299.119 156.296 315.651 141.727 321.813 122.551C319.532 121.024 317.98 118.49 317.797 115.586C302.684 110.898 286.629 108.372 269.996 108.372C253.362 108.372 237.307 110.898 222.193 115.586ZM278.561 164.613C278.384 165.12 278.162 165.606 277.902 166.068L310.658 198.824C326.71 175.637 350.37 158.098 377.997 149.85C364.878 138.046 349.822 128.354 333.371 121.316C331.721 123.019 329.41 124.079 326.852 124.079C326.718 124.079 326.585 124.076 326.452 124.07C319.617 145.288 301.126 161.331 278.561 164.613ZM274.452 169.519C273.136 170.263 271.615 170.688 269.995 170.688C268.377 170.688 266.857 170.264 265.541 169.521L232.089 202.976C244.412 222.376 251.553 245.374 251.553 270.009C251.553 294.642 244.411 317.639 232.09 337.038L265.012 369.96C266.528 368.821 268.414 368.145 270.456 368.145C272.262 368.145 273.945 368.673 275.359 369.584L307.903 337.043C295.579 317.643 288.436 294.644 288.436 270.009C288.436 245.373 295.58 222.373 307.905 202.972L274.452 169.519ZM262.09 166.07C261.829 165.608 261.607 165.121 261.429 164.614C238.862 161.334 220.367 145.291 213.532 124.07C213.437 124.074 213.342 124.077 213.247 124.078C213.23 124.078 213.213 124.078 213.196 124.078C213.177 124.079 213.157 124.079 213.138 124.079C210.581 124.079 208.27 123.02 206.62 121.316C190.169 128.354 175.114 138.046 161.995 149.849C189.625 158.097 213.285 175.636 229.336 198.824L262.09 166.07ZM229.332 341.195L262.017 373.879C261.825 374.363 261.674 374.868 261.567 375.389C239.44 378.55 221.207 393.974 214.005 414.538C213.72 414.511 213.43 414.497 213.138 414.497C210.087 414.497 207.387 416.004 205.742 418.315C189.635 411.311 174.883 401.757 161.998 390.167C189.623 381.918 213.281 364.38 229.332 341.195ZM218.562 416.297C225.096 397.461 241.705 383.294 261.909 380.273C263.164 383.781 266.518 386.292 270.456 386.292C274.342 386.292 277.659 383.847 278.951 380.411C298.76 383.706 314.984 397.737 321.423 416.301C319.211 417.956 317.778 420.597 317.778 423.571C317.778 423.856 317.792 424.137 317.817 424.415C302.699 429.107 286.637 431.635 269.996 431.635C253.354 431.635 237.292 429.108 222.173 424.416C222.199 424.138 222.212 423.856 222.212 423.571C222.212 420.594 220.777 417.952 218.562 416.297ZM325.977 414.539C318.878 394.276 301.067 378.998 279.373 375.534C279.222 374.727 278.963 373.958 278.613 373.242L310.659 341.197C326.709 364.38 350.366 381.917 377.989 390.166C365.105 401.756 350.353 411.31 334.248 418.314C332.602 416.004 329.903 414.497 326.852 414.497C326.557 414.497 326.265 414.511 325.977 414.539ZM225.826 202.333C209.865 178.905 185.864 161.372 157.824 153.736C127.343 183.152 108.358 224.406 108.358 270.01C108.358 315.616 127.344 356.869 157.828 386.282C185.865 378.645 209.864 361.113 225.825 337.687L158.149 270.011L225.826 202.333ZM228.553 333.501L165.062 270.011L228.551 206.515C240.034 224.962 246.672 246.724 246.672 270.009C246.672 293.293 240.035 315.054 228.553 333.501ZM335.903 422.92C335.918 423.135 335.926 423.352 335.926 423.571C335.926 427.746 333.103 431.264 329.263 432.32C329.281 432.908 329.29 433.498 329.29 434.09C329.29 466.781 302.682 493.388 269.992 493.388C237.301 493.388 210.694 466.781 210.694 434.09C210.694 433.497 210.702 432.907 210.72 432.318C206.883 431.26 204.064 427.743 204.064 423.571C204.064 423.452 204.067 423.334 204.071 423.216C204.073 423.178 204.074 423.14 204.076 423.102L204.077 423.096C204.08 423.037 204.083 422.977 204.088 422.918C186.415 415.273 170.32 404.651 156.438 391.688C146.746 394.099 136.611 395.378 126.184 395.378C74.9007 395.378 30.7002 364.422 11.2998 320.215C34.8037 441.587 141.864 533.502 269.995 533.502C398.139 533.502 505.208 441.558 528.697 320.173C509.31 364.402 465.105 395.378 413.805 395.378C403.38 395.378 393.248 394.099 383.557 391.689C369.674 404.653 353.577 415.275 335.903 422.92ZM215.576 434.09C215.576 433.493 215.585 432.898 215.604 432.305C217.555 431.755 219.24 430.568 220.42 428.984C236.086 433.879 252.738 436.517 269.996 436.517C287.253 436.517 303.906 433.879 319.571 428.985C320.75 430.567 322.431 431.752 324.379 432.303C324.398 432.896 324.408 433.492 324.408 434.09C324.408 464.097 299.998 488.506 269.992 488.506C239.985 488.506 215.576 464.097 215.576 434.09ZM314.174 337.682C330.132 361.107 354.128 378.639 382.162 386.278C412.646 356.864 431.634 315.61 431.634 270.01C431.634 224.407 412.65 183.154 382.17 153.738C354.132 161.377 330.133 178.91 314.172 202.338L381.845 270.011L314.174 337.682ZM311.45 206.517C299.968 224.964 293.331 246.725 293.331 270.009C293.331 293.292 299.967 315.053 311.448 333.499L374.944 270.011L311.45 206.517ZM126.184 149.522C135.134 149.522 143.859 150.503 152.257 152.362C122.131 182.511 103.476 224.122 103.476 270.01C103.476 315.896 122.135 357.507 152.265 387.655C143.864 389.515 135.137 390.497 126.184 390.497C66.2036 390.497 16.3151 346.451 7.17967 289.002C6.73082 282.729 6.50255 276.396 6.50255 270.01C6.50255 263.624 6.73088 257.289 7.17986 251.015C16.3157 193.567 66.2039 149.522 126.184 149.522ZM413.818 390.497C404.864 390.497 396.134 389.515 387.732 387.654C417.859 357.508 436.515 315.899 436.515 270.01C436.515 224.123 417.861 182.513 387.736 152.364C396.137 150.503 404.865 149.522 413.818 149.522C473.797 149.522 523.674 193.565 532.81 251.011C533.259 257.287 533.487 263.622 533.487 270.01C533.487 276.397 533.259 282.732 532.81 289.006C523.675 346.453 473.797 390.497 413.818 390.497Z" fill="url(#paint0_linear_373_6235)" fill-opacity="0.4" style="mix-blend-mode:saturation"/>
<defs>
<linearGradient id="paint0_linear_373_6235" x1="446" y1="6.5" x2="232" y2="414.5" gradientUnits="userSpaceOnUse">
<stop stop-color="#8533FF"/>
<stop offset="1" stop-color="#E9DAFF"/>
</linearGradient>
</defs>
</svg>
