<svg width="249" height="249" viewBox="0 0 249 249" fill="none" xmlns="http://www.w3.org/2000/svg">
<path d="M198.99 100.203H50.5679V248.625H198.99V100.203Z" fill="#9853FF"/>
<path d="M124.705 248.626C95.8848 248.626 72.3486 225.25 72.3486 196.27C72.3486 167.29 95.8848 144.074 124.705 144.074C153.524 144.074 177.06 167.45 177.06 196.43C177.06 225.41 153.684 248.626 124.705 248.626ZM124.705 145.675C96.8454 145.675 74.1098 168.411 74.1098 196.43C74.1098 224.449 96.8454 247.185 124.865 247.185C152.884 247.185 175.619 224.449 175.619 196.43C175.619 168.411 152.724 145.675 124.705 145.675Z" fill="#FBFBFB"/>
<path d="M124.69 248.624C85.463 248.624 53.7612 216.762 53.7612 177.695C53.7612 138.468 85.6231 106.767 124.69 106.767C163.917 106.767 195.618 138.628 195.618 177.695C195.779 216.922 163.917 248.624 124.69 248.624ZM124.69 108.368C86.4236 108.368 55.3623 139.429 55.3623 177.695C55.3623 215.961 86.4236 247.023 124.69 247.023C162.956 247.023 194.178 215.961 194.178 177.695C194.178 139.429 163.116 108.368 124.69 108.368Z" fill="#FBFBFB"/>
<path d="M124.686 248.625C70.8892 248.625 27.1792 204.915 27.1792 151.118C27.1792 97.3213 70.8892 53.6113 124.686 53.6113C178.483 53.6113 222.193 97.3213 222.193 151.118C222.193 204.915 178.483 248.625 124.686 248.625ZM124.686 55.3725C71.8498 55.3725 28.7803 98.4421 28.7803 151.278C28.7803 204.115 71.8498 247.184 124.686 247.184C177.522 247.184 220.592 204.115 220.592 151.278C220.592 98.282 177.682 55.3725 124.686 55.3725Z" fill="#D6D8FF"/>
<path d="M124.699 248.624C56.3325 248.624 0.774414 193.066 0.774414 124.699C0.774414 56.3325 56.3325 0.774414 124.699 0.774414C193.066 0.774414 248.624 56.3325 248.624 124.699C248.624 193.066 193.226 248.624 124.699 248.624ZM124.699 2.37551C57.1331 2.37551 2.37551 57.2932 2.37551 124.699C2.37551 192.266 57.2932 247.023 124.699 247.023C192.106 247.023 247.023 192.106 247.023 124.699C247.183 57.133 192.266 2.37551 124.699 2.37551Z" fill="#D6D8FF"/>
</svg>
