<svg width="71" height="72" viewBox="0 0 71 72" fill="none" xmlns="http://www.w3.org/2000/svg">
<path d="M5.73904 29.2662C2.57572 29.2662 0 26.6921 0 23.5272C0 20.3622 2.57411 17.7881 5.73904 17.7881C8.90397 17.7881 11.4797 20.3638 11.4797 23.5272C11.4797 26.6905 8.90558 29.2662 5.73904 29.2662ZM5.73904 18.2034C2.80432 18.2034 0.415339 20.5924 0.415339 23.5272C0.415339 26.4619 2.80271 28.8509 5.73904 28.8509C8.67537 28.8509 11.0628 26.4635 11.0628 23.5272C11.0628 20.5908 8.67376 18.2034 5.73904 18.2034Z" fill="#9853FF"/>
<path d="M64.6416 53.9591C61.4767 53.9591 58.9026 51.3849 58.9026 48.22C58.9026 45.0551 61.4767 42.481 64.6416 42.481C67.8066 42.481 70.3823 45.0551 70.3823 48.22C70.3823 51.3849 67.8082 53.9591 64.6416 53.9591ZM64.6416 42.8963C61.7053 42.8963 59.3179 45.2853 59.3179 48.22C59.3179 51.1547 61.7053 53.5437 64.6416 53.5437C67.578 53.5437 69.9653 51.1547 69.9653 48.22C69.9653 45.2853 67.578 42.8963 64.6416 42.8963Z" fill="#9853FF"/>
<path d="M64.6416 29.2662C61.4767 29.2662 58.9026 26.6921 58.9026 23.5272C58.9026 20.3622 61.4767 17.7881 64.6416 17.7881C67.8066 17.7881 70.3823 20.3638 70.3823 23.5272C70.3823 26.6905 67.8082 29.2662 64.6416 29.2662ZM64.6416 18.2034C61.7053 18.2034 59.3179 20.5924 59.3179 23.5272C59.3179 26.4619 61.7053 28.8509 64.6416 28.8509C67.578 28.8509 69.9653 26.4635 69.9653 23.5272C69.9653 20.5908 67.578 18.2034 64.6416 18.2034Z" fill="#9853FF"/>
<path d="M5.73904 53.9591C2.57572 53.9591 0 51.3849 0 48.22C0 45.0551 2.57411 42.481 5.73904 42.481C8.90397 42.481 11.4797 45.0551 11.4797 48.22C11.4797 51.3849 8.90558 53.9591 5.73904 53.9591ZM5.73904 42.8963C2.80432 42.8963 0.415339 45.2853 0.415339 48.22C0.415339 51.1547 2.80271 53.5437 5.73904 53.5437C8.67537 53.5437 11.0628 51.1547 11.0628 48.22C11.0628 45.2853 8.67376 42.8963 5.73904 42.8963Z" fill="#9853FF"/>
<path d="M22.9012 71.1899C19.7378 71.1899 17.1621 68.6158 17.1621 65.4508C17.1621 62.2859 19.7378 59.7118 22.9012 59.7118C26.0645 59.7118 28.6402 62.2859 28.6402 65.4508C28.6402 68.6158 26.0661 71.1899 22.9012 71.1899ZM22.9012 60.1271C19.9664 60.1271 17.5791 62.5145 17.5791 65.4508C17.5791 68.3872 19.9664 70.7745 22.9012 70.7745C25.8359 70.7745 28.2249 68.3872 28.2249 65.4508C28.2249 62.5145 25.8359 60.1271 22.9012 60.1271Z" fill="#9853FF"/>
<path d="M47.2226 71.1899C44.0577 71.1899 41.4819 68.6158 41.4819 65.4508C41.4819 62.2859 44.056 59.7118 47.2226 59.7118C50.3891 59.7118 52.9616 62.2859 52.9616 65.4508C52.9616 68.6158 50.3875 71.1899 47.2226 71.1899ZM47.2226 60.1271C44.2863 60.1271 41.8973 62.5145 41.8973 65.4508C41.8973 68.3872 44.2863 70.7745 47.2226 70.7745C50.1589 70.7745 52.5463 68.3872 52.5463 65.4508C52.5463 62.5145 50.1589 60.1271 47.2226 60.1271Z" fill="#9853FF"/>
<path d="M22.9012 12.2879C19.7378 12.2879 17.1621 9.71381 17.1621 6.54889C17.1621 3.38396 19.7378 0.809814 22.9012 0.809814C26.0645 0.809814 28.6402 3.38396 28.6402 6.54889C28.6402 9.71381 26.0661 12.2879 22.9012 12.2879ZM22.9012 1.22677C19.9664 1.22677 17.5791 3.61578 17.5791 6.5505C17.5791 9.48522 19.9664 11.8742 22.9012 11.8742C25.8359 11.8742 28.2249 9.48522 28.2249 6.5505C28.2249 3.61578 25.8359 1.22677 22.9012 1.22677Z" fill="#9853FF"/>
<path d="M47.2226 12.2879C44.0577 12.2879 41.4819 9.71381 41.4819 6.54889C41.4819 3.38396 44.056 0.809814 47.2226 0.809814C50.3891 0.809814 52.9616 3.38396 52.9616 6.54889C52.9616 9.71381 50.3875 12.2879 47.2226 12.2879ZM47.2226 1.22677C44.2863 1.22677 41.8973 3.61578 41.8973 6.5505C41.8973 9.48522 44.2863 11.8742 47.2226 11.8742C50.1589 11.8742 52.5463 9.48522 52.5463 6.5505C52.5463 3.61578 50.1589 1.22677 47.2226 1.22677Z" fill="#9853FF"/>
<path d="M5.94429 29.058H5.52734V42.6868H5.94429V29.058Z" fill="#9853FF"/>
<path d="M9.81688 51.9599L9.52319 52.2535L18.8995 61.6299L19.1932 61.3362L9.81688 51.9599Z" fill="#9853FF"/>
<path d="M41.6908 65.2426H28.4307V65.6579H41.6908V65.2426Z" fill="#9853FF"/>
<path d="M60.5747 51.9749L51.0708 61.4788L51.3645 61.7725L60.8684 52.2686L60.5747 51.9749Z" fill="#9853FF"/>
<path d="M64.8491 29.058H64.4321V42.6885H64.8491V29.058Z" fill="#9853FF"/>
<path d="M51.3645 10.2271L51.0708 10.5208L60.4517 19.9017L60.7454 19.608L51.3645 10.2271Z" fill="#9853FF"/>
<path d="M41.6908 6.3429H28.4307V6.75824H41.6908V6.3429Z" fill="#9853FF"/>
<path d="M18.8883 10.3456L9.64526 19.6049L9.93919 19.8983L19.1823 10.6391L18.8883 10.3456Z" fill="#9853FF"/>
<path d="M45.139 60.2049H24.9813L10.7283 45.9519V25.7942L24.9813 11.5396H45.139L59.392 25.7942V45.9519L45.139 60.2049ZM25.1552 59.7896H44.9684L58.9767 45.7796V25.9664L44.9684 11.9565H25.1552L11.1452 25.9664V45.7796L25.1552 59.7896Z" fill="#9853FF"/>
<path d="M26.1159 59.92C26.1159 60.4868 25.6553 60.9473 25.0886 60.9473C24.5218 60.9473 24.0613 60.4868 24.0613 59.92C24.0613 59.3532 24.5218 58.8927 25.0886 58.8927C25.6553 58.8927 26.1159 59.3532 26.1159 59.92Z" fill="#9853FF"/>
<path d="M45.996 11.7486C45.996 12.317 45.5355 12.7759 44.9687 12.7759C44.4019 12.7759 43.9414 12.3154 43.9414 11.7486C43.9414 11.1818 44.4019 10.7213 44.9687 10.7213C45.5355 10.7213 45.996 11.1818 45.996 11.7486Z" fill="#9853FF"/>
<path d="M11.9677 25.7203C11.9677 26.287 11.5072 26.7476 10.9404 26.7476C10.3736 26.7476 9.91309 26.287 9.91309 25.7203C9.91309 25.1535 10.3736 24.693 10.9404 24.693C11.5072 24.693 11.9677 25.1535 11.9677 25.7203Z" fill="#9853FF"/>
<path d="M11.7162 45.768C11.7162 46.3364 11.2557 46.7953 10.6889 46.7953C10.1221 46.7953 9.66162 46.3348 9.66162 45.768C9.66162 45.2012 10.1205 44.7407 10.6889 44.7407C11.2573 44.7407 11.7162 45.2012 11.7162 45.768Z" fill="#9853FF"/>
<path d="M45.996 59.9967C45.996 60.5634 45.5355 61.0239 44.9687 61.0239C44.4019 61.0239 43.9414 60.5634 43.9414 59.9967C43.9414 59.4299 44.4019 58.9694 44.9687 58.9694C45.5355 58.9694 45.996 59.4299 45.996 59.9967Z" fill="#9853FF"/>
<path d="M60.2115 45.768C60.2115 46.3364 59.751 46.7953 59.1826 46.7953C58.6142 46.7953 58.1553 46.3348 58.1553 45.768C58.1553 45.2012 58.6158 44.7407 59.1826 44.7407C59.7493 44.7407 60.2115 45.2012 60.2115 45.768Z" fill="#9853FF"/>
<path d="M60.2115 25.8807C60.2115 26.4474 59.751 26.908 59.1826 26.908C58.6142 26.908 58.1553 26.4474 58.1553 25.8807C58.1553 25.3139 58.6158 24.8534 59.1826 24.8534C59.7493 24.8534 60.2115 25.3139 60.2115 25.8807Z" fill="#9853FF"/>
<path d="M26.1159 11.7486C26.1159 12.317 25.6553 12.7759 25.0886 12.7759C24.5218 12.7759 24.0613 12.3154 24.0613 11.7486C24.0613 11.1818 24.5218 10.7213 25.0886 10.7213C25.6553 10.7213 26.1159 11.1818 26.1159 11.7486Z" fill="#9853FF"/>
<path d="M56.1555 48.8159H13.9003L13.7795 48.6083L34.908 12.0131H35.1478L56.2746 48.6083L56.1555 48.8159ZM14.1385 48.5374H55.914L35.0271 12.3575L14.1385 48.5374Z" fill="#9853FF"/>
<path d="M56.6293 56.0634H13.5869L35.1081 18.7872L56.6293 56.0634ZM14.0666 55.7849H56.1496L35.1081 19.341L14.0666 55.7849Z" fill="#9853FF"/>
<path d="M35.1623 53.0893L13.6926 15.9049H56.6288L56.508 16.1126L35.1623 53.0893ZM14.174 16.1818L35.1623 52.5339L56.1491 16.1818H14.174Z" fill="#9853FF"/>
<path d="M35.027 53.3454C25.3925 53.3454 17.5544 45.5073 17.5544 35.8727C17.5544 26.2382 25.3925 18.4001 35.027 18.4001C44.6616 18.4001 52.4996 26.2382 52.4996 35.8727C52.4996 45.5073 44.6616 53.3454 35.027 53.3454ZM35.027 18.8171C25.6227 18.8171 17.9714 26.4684 17.9714 35.8727C17.9714 45.2771 25.6227 52.93 35.027 52.93C44.4314 52.93 52.0827 45.2787 52.0827 35.8727C52.0827 26.4668 44.4314 18.8171 35.027 18.8171Z" fill="#9853FF"/>
<path d="M36.1347 18.61C36.1347 19.1768 35.6741 19.6373 35.1074 19.6373C34.5406 19.6373 34.0801 19.1768 34.0801 18.61C34.0801 18.0433 34.5406 17.5828 35.1074 17.5828C35.6741 17.5828 36.1347 18.0433 36.1347 18.61Z" fill="#9853FF"/>
<path d="M36.1894 53.1369C36.1894 53.7037 35.7289 54.1642 35.1622 54.1642C34.5954 54.1642 34.1365 53.7037 34.1365 53.1369C34.1365 52.5701 34.5954 52.1096 35.1622 52.1096C35.7289 52.1096 36.1894 52.5701 36.1894 53.1369Z" fill="#9853FF"/>
</svg>
