<svg width="30" height="30" viewBox="0 0 30 30" fill="none" xmlns="http://www.w3.org/2000/svg">
<path fill-rule="evenodd" clip-rule="evenodd" d="M-2.16365e-05 15.0004C-2.1275e-05 6.72914 6.72913 -1.01717e-06 14.9996 -6.55655e-07C23.2701 -2.9414e-07 29.9993 6.72914 29.9993 15.0004C29.9993 23.2716 23.2701 30 14.9996 30C6.72913 30 -2.19981e-05 23.2716 -2.16365e-05 15.0004ZM29.3718 12.2136C28.0669 5.46992 22.1187 0.361377 14.9996 0.361377C7.88157 0.361376 1.934 5.46797 0.627992 12.2106C1.70574 9.75497 4.16088 8.03543 7.01024 8.03543C7.58941 8.03543 8.15227 8.10647 8.69058 8.2403C9.46479 7.51727 10.3629 6.9253 11.3491 6.50014C11.3411 6.46441 11.3368 6.42724 11.3368 6.38909C11.3368 6.15776 11.4928 5.96274 11.7053 5.90349L11.7052 5.88507C11.7052 4.06824 13.1834 2.59078 14.9995 2.59078C16.8156 2.59078 18.2938 4.06895 18.2938 5.88507L18.2937 5.90345C18.5063 5.96267 18.6623 6.15772 18.6623 6.38909C18.6623 6.42604 18.6583 6.46206 18.6508 6.49675L18.65 6.50003C19.6364 6.9252 20.5346 7.51721 21.3088 8.2403C21.8471 8.10647 22.4099 8.03542 22.9889 8.03542C25.8389 8.03543 28.2948 9.75635 29.3718 12.2136ZM11.9765 5.90347L11.9764 5.88507C11.9764 4.21805 13.3325 2.86199 14.9995 2.86199C16.6665 2.86199 18.0226 4.21805 18.0226 5.88507L18.0225 5.90349C17.8877 5.9411 17.7757 6.03335 17.7118 6.15483C16.8538 5.89126 15.943 5.74935 14.9997 5.74935C14.0563 5.74935 13.1455 5.89128 12.2874 6.15491C12.2235 6.03335 12.1114 5.94107 11.9765 5.90347ZM12.344 6.42135C12.3338 6.5828 12.2475 6.72365 12.1206 6.80846C12.4631 7.87377 13.3816 8.68316 14.5077 8.86816C14.558 8.64285 14.7592 8.47434 14.9996 8.47434C15.2401 8.47434 15.4413 8.64283 15.4916 8.86812C16.6176 8.68304 17.536 7.87367 17.8784 6.80842C17.7516 6.72358 17.6653 6.58271 17.6551 6.42126C16.8156 6.16086 15.9237 6.02056 14.9997 6.02056C14.0756 6.02056 13.1836 6.16089 12.344 6.42135ZM15.4389 9.22586C15.4534 9.20023 15.4656 9.1732 15.4755 9.14504C16.7291 8.96274 17.7564 8.07151 18.1361 6.89269L18.1402 6.89285L18.1512 6.89312L18.1582 6.89317C18.3003 6.89317 18.4288 6.83429 18.5204 6.73961C19.4344 7.13063 20.2708 7.66906 20.9997 8.32483C19.4648 8.78306 18.1504 9.75742 17.2586 11.0456L15.4389 9.22586ZM15.2472 9.41758C15.1741 9.45892 15.0896 9.48251 14.9996 9.48251C14.9097 9.48251 14.8253 9.45894 14.7522 9.41765L12.8938 11.2763C13.5783 12.354 13.9751 13.6317 13.9751 15.0003C13.9751 16.3688 13.5783 17.6463 12.8938 18.7241L14.7228 20.5531C14.8071 20.4898 14.9118 20.4523 15.0253 20.4523C15.1256 20.4523 15.2191 20.4816 15.2976 20.5321L17.1056 18.7244C16.4209 17.6466 16.0241 16.3689 16.0241 15.0003C16.0241 13.6316 16.421 12.3539 17.1057 11.2761L15.2472 9.41758ZM14.5238 9.14508C14.5337 9.17326 14.546 9.20031 14.5605 9.22595L12.7408 11.0456C11.8491 9.75743 10.5347 8.78306 8.99974 8.32482C9.72856 7.6691 10.5649 7.1307 11.4788 6.73969C11.5705 6.83432 11.6988 6.89317 11.8409 6.89317C11.8483 6.89317 11.8556 6.893 11.8629 6.89269C12.2426 8.07159 13.2701 8.96286 14.5238 9.14508ZM12.7406 18.955L14.5564 20.7708L14.5516 20.7834L14.5478 20.7943C14.5412 20.8139 14.5357 20.8341 14.5315 20.8547C13.3022 21.0303 12.2893 21.8872 11.8892 23.0296C11.8733 23.0281 11.8572 23.0273 11.8409 23.0273C11.6715 23.0273 11.5215 23.111 11.4301 23.2393C10.5353 22.8502 9.71573 22.3195 8.99992 21.6756C10.5346 21.2173 11.8489 20.243 12.7406 18.955ZM12.1423 23.1274C12.5053 22.0809 13.428 21.2938 14.5505 21.126C14.6202 21.3209 14.8065 21.4604 15.0253 21.4604C15.2412 21.4604 15.4255 21.3246 15.4972 21.1337C16.5977 21.3167 17.499 22.0961 17.8567 23.1275C17.7337 23.2194 17.6541 23.3661 17.6541 23.5314C17.6541 23.5472 17.6549 23.5629 17.6563 23.5783C16.8164 23.839 15.9241 23.9794 14.9997 23.9794C14.0752 23.9794 13.1828 23.839 12.3428 23.5783C12.3443 23.5629 12.345 23.5472 12.345 23.5314C12.345 23.3661 12.2653 23.2193 12.1423 23.1274ZM18.1097 23.0296C17.7154 21.9039 16.7259 21.0552 15.5207 20.8627C15.5122 20.8179 15.4979 20.7752 15.4784 20.7354L17.2587 18.9551C18.1504 20.2431 19.4646 21.2173 20.9992 21.6756C20.2834 22.3195 19.4639 22.8502 18.5691 23.2394C18.4777 23.1111 18.3277 23.0273 18.1582 23.0273C18.1419 23.0273 18.1257 23.0281 18.1097 23.0296ZM12.5458 11.2406C11.6591 9.93902 10.3257 8.965 8.76803 8.54073C7.07464 10.1749 6.01993 12.4668 6.01993 15.0003C6.01993 17.534 7.07473 19.8257 8.76825 21.4598C10.3258 21.0355 11.659 20.0615 12.5458 18.7601L8.78601 15.0004L12.5458 11.2406ZM12.6973 18.5276L9.1701 15.0004L12.6972 11.4729C13.3351 12.4977 13.7039 13.7067 13.7039 15.0003C13.7039 16.2938 13.3352 17.5028 12.6973 18.5276ZM18.661 23.4953C19.6429 23.0706 20.5372 22.4804 21.3086 21.7602C21.8469 21.8941 22.4098 21.9651 22.9889 21.9651C25.839 21.9651 28.2948 20.2442 29.3718 17.7869C28.067 24.5305 22.1187 29.6386 14.9996 29.6386C7.88134 29.6386 1.93362 24.5323 0.627868 17.7895C1.70566 20.2454 4.1612 21.9651 7.01024 21.9651C7.58953 21.9651 8.15254 21.894 8.69099 21.7601C9.46222 22.4802 10.3564 23.0703 11.3381 23.4951C11.3373 23.5071 11.3368 23.5192 11.3368 23.5314C11.3368 23.7633 11.4935 23.9586 11.7067 24.0174C11.7057 24.0501 11.7052 24.0829 11.7052 24.1158C11.7052 25.9319 13.1834 27.4101 14.9995 27.4101C16.8156 27.4101 18.2938 25.9319 18.2938 24.1158C18.2938 24.0829 18.2933 24.0501 18.2923 24.0174C18.5056 23.9587 18.6623 23.7633 18.6623 23.5314C18.6623 23.5193 18.6619 23.5072 18.661 23.4953ZM11.978 24.0166C12.0864 23.986 12.18 23.9201 12.2455 23.8321C13.1158 24.104 14.041 24.2506 14.9997 24.2506C15.9584 24.2506 16.8835 24.1041 17.7537 23.8322C17.8192 23.9201 17.9127 23.986 18.021 24.0166C18.022 24.0495 18.0226 24.0826 18.0226 24.1158C18.0226 25.7828 16.6665 27.1389 14.9995 27.1389C13.3325 27.1389 11.9764 25.7828 11.9764 24.1158C11.9764 24.0826 11.977 24.0495 11.978 24.0166ZM17.4539 18.7599C18.3405 20.0612 19.6736 21.0352 21.231 21.4596C22.9246 19.8255 23.9795 17.5336 23.9795 15.0003C23.9795 12.4669 22.9248 10.175 21.2315 8.54084C19.6738 8.96519 18.3405 9.93926 17.4539 11.2408L21.2134 15.0004L17.4539 18.7599ZM17.3026 11.473C16.6647 12.4978 16.296 13.7067 16.296 15.0003C16.296 16.2938 16.6647 17.5027 17.3025 18.5275L20.83 15.0004L17.3026 11.473ZM7.01024 8.30663C7.50746 8.30663 7.99219 8.36112 8.45876 8.46442C6.78514 10.1393 5.74873 12.451 5.74873 15.0003C5.74873 17.5495 6.78532 19.8612 8.45919 21.536C7.99248 21.6394 7.50762 21.6939 7.01024 21.6939C3.67807 21.6939 0.906564 19.2471 0.398986 16.0556C0.374046 15.707 0.361362 15.3551 0.361362 15.0004C0.361362 14.6455 0.374053 14.2935 0.399005 13.9449C0.906631 10.7534 3.67812 8.30663 7.01024 8.30663ZM22.9896 21.6939C22.4922 21.6939 22.0073 21.6394 21.5405 21.536C23.2142 19.8613 24.2507 17.5497 24.2507 15.0003C24.2507 12.4511 23.2143 10.1394 21.5407 8.46451C22.0074 8.36115 22.4923 8.30663 22.9896 8.30663C26.3219 8.30663 29.093 10.7537 29.6003 13.9453C29.6252 14.2938 29.6379 14.6456 29.6379 15.0004C29.6379 15.355 29.6252 15.7067 29.6003 16.0551C29.093 19.2468 26.322 21.6939 22.9896 21.6939Z" fill="#C299FF"/>
</svg>
