<svg width="33" height="33" viewBox="0 0 33 33" fill="none" xmlns="http://www.w3.org/2000/svg">
<path fill-rule="evenodd" clip-rule="evenodd" d="M23.4752 0.679688H9.461C4.62363 0.679688 0.702148 4.60116 0.702148 9.43854V23.4527C0.702148 28.29 4.62363 32.2115 9.461 32.2115H23.4752C28.3125 32.2115 32.234 28.29 32.234 23.4527V9.43854C32.234 4.60116 28.3125 0.679688 23.4752 0.679688ZM29.1684 23.4527C29.1588 26.5929 26.6154 29.1363 23.4752 29.146H9.461C6.32069 29.1363 3.77736 26.5929 3.76775 23.4527V9.43854C3.77736 6.29823 6.32069 3.7549 9.461 3.74529H23.4752C26.6154 3.7549 29.1588 6.29823 29.1684 9.43854V23.4527ZM24.789 9.87648C25.7565 9.87648 26.5408 9.09218 26.5408 8.12471C26.5408 7.15724 25.7565 6.37294 24.789 6.37294C23.8215 6.37294 23.0372 7.15724 23.0372 8.12471C23.0372 9.09218 23.8215 9.87648 24.789 9.87648ZM16.4681 8.56265C12.1144 8.56265 8.58511 12.092 8.58511 16.4456C8.58511 20.7993 12.1144 24.3286 16.4681 24.3286C20.8218 24.3286 24.351 20.7993 24.351 16.4456C24.3558 14.3535 23.5267 12.3457 22.0473 10.8664C20.5679 9.38702 18.5602 8.55799 16.4681 8.56265ZM11.6507 16.4456C11.6507 19.1062 13.8075 21.263 16.4681 21.263C19.1287 21.263 21.2854 19.1062 21.2854 16.4456C21.2854 13.785 19.1287 11.6283 16.4681 11.6283C13.8075 11.6283 11.6507 13.785 11.6507 16.4456Z" fill="#F6F6F7" fill-opacity="0.6"/>
</svg>
