<svg width="116" height="247" viewBox="0 0 116 247" fill="none" xmlns="http://www.w3.org/2000/svg">
<path d="M57.9221 180.469C89.6394 180.469 115.351 154.757 115.351 123.039C115.351 91.3219 89.6394 65.6099 57.9221 65.6099C26.2047 65.6099 0.492676 91.3219 0.492676 123.039C0.492676 154.757 26.2047 180.469 57.9221 180.469Z" fill="#9853FF"/>
<path d="M57.931 113.375C26.8351 113.375 1.48218 88.0218 1.48218 56.9259C1.48218 25.83 26.8351 0.477051 57.931 0.477051C89.027 0.477051 114.38 25.83 114.38 56.9259C114.24 88.0218 89.027 113.375 57.931 113.375ZM57.931 2.57813C27.9557 2.57813 3.58325 26.9506 3.58325 56.9259C3.58325 86.9013 27.9557 111.414 57.931 111.414C87.9064 111.414 112.419 87.0413 112.419 56.9259C112.279 26.9506 87.9064 2.57813 57.931 2.57813Z" fill="#E8EAFF"/>
<path d="M70.9646 189.155C70.9646 196.439 65.0816 202.182 57.938 202.182V200.921C64.5214 200.921 69.8441 195.598 69.8441 189.015C69.8441 182.432 64.5214 177.109 57.938 177.109V175.848C65.0816 175.988 70.9646 181.871 70.9646 189.155Z" fill="#E8EAFF"/>
<path d="M80.0643 189.156C80.0643 201.482 70.1193 211.427 57.793 211.427V210.166C69.4189 210.166 78.8037 200.782 78.8037 189.156C78.8037 177.53 69.4189 168.145 57.793 168.145V166.884C70.1193 166.884 80.0643 176.829 80.0643 189.156Z" fill="#E8EAFF"/>
<path d="M88.1935 189.154C88.1935 205.823 74.6065 219.41 57.938 219.41V218.149C73.9062 218.149 86.9328 205.123 86.9328 189.154C86.9328 173.186 73.9062 160.16 57.938 160.16V158.899C74.6065 158.899 88.1935 172.486 88.1935 189.154Z" fill="#E8EAFF"/>
<path d="M96.1775 189.156C96.1775 210.166 79.0888 227.395 57.938 227.395V226.135C78.3885 226.135 94.9169 209.466 94.9169 189.156C94.9169 168.845 78.2484 152.177 57.938 152.177V150.916C78.9487 150.916 96.1775 168.005 96.1775 189.156Z" fill="#E8EAFF"/>
<path d="M105.417 189.156C105.417 215.349 84.1264 236.78 57.793 236.78V235.519C83.286 235.519 104.157 214.789 104.157 189.156C104.157 163.663 83.4261 142.792 57.793 142.792V141.531C84.1264 141.531 105.417 162.822 105.417 189.156Z" fill="#E8EAFF"/>
<path d="M115.367 189.155C115.367 220.811 89.5942 246.584 57.938 246.584V245.324C88.8938 245.324 114.107 220.111 114.107 189.155C114.107 158.199 88.8938 132.986 57.938 132.986V131.726C89.5942 131.726 115.367 157.499 115.367 189.155Z" fill="#E8EAFF"/>
<path d="M44.7627 189.153C44.7627 196.437 50.6457 202.18 57.7893 202.18V200.919C51.206 200.919 45.8833 195.597 45.8833 189.013C45.8833 182.43 51.206 177.107 57.7893 177.107V175.847C50.6457 175.987 44.7627 181.87 44.7627 189.153Z" fill="#E8EAFF"/>
<path d="M35.6511 189.154C35.6511 201.481 45.5962 211.426 57.9225 211.426V210.165C46.2965 210.165 36.9117 200.78 36.9117 189.154C36.9117 177.528 46.2965 168.143 57.9225 168.143V166.883C45.5962 166.883 35.6511 176.828 35.6511 189.154Z" fill="#E8EAFF"/>
<path d="M27.6685 189.154C27.6685 205.822 41.2554 219.409 57.9239 219.409V218.149C41.9557 218.149 28.9291 205.122 28.9291 189.154C28.9291 173.186 41.9557 160.159 57.9239 160.159V158.898C41.2554 158.898 27.6685 172.485 27.6685 189.154Z" fill="#E8EAFF"/>
<path d="M19.6855 189.154C19.6855 210.165 36.7743 227.394 57.9251 227.394V226.133C37.4746 226.133 20.9462 209.465 20.9462 189.154C20.9462 168.844 37.6147 152.175 57.9251 152.175V150.915C36.7743 150.915 19.6855 168.003 19.6855 189.154Z" fill="#E8EAFF"/>
<path d="M10.2981 189.154C10.2981 215.348 31.589 236.779 57.9225 236.779V235.518C32.4294 235.518 11.5588 214.787 11.5588 189.154C11.5588 163.661 32.2893 142.79 57.9225 142.79V141.53C31.589 141.53 10.2981 162.821 10.2981 189.154Z" fill="#E8EAFF"/>
<path d="M0.492676 189.153C0.492676 220.81 26.2659 246.583 57.9221 246.583V245.322C26.9662 245.322 1.75335 220.109 1.75335 189.153C1.75335 158.198 26.9662 132.985 57.9221 132.985V131.724C26.2659 131.724 0.492676 157.497 0.492676 189.153Z" fill="#E8EAFF"/>
</svg>
