<svg width="230" height="230" viewBox="0 0 230 230" fill="none" xmlns="http://www.w3.org/2000/svg">
<path d="M114.821 122.508C118.992 122.508 122.374 119.126 122.374 114.955C122.374 110.783 118.992 107.402 114.821 107.402C110.649 107.402 107.268 110.783 107.268 114.955C107.268 119.126 110.649 122.508 114.821 122.508Z" fill="#9853FF"/>
<path d="M114.819 101.058C118.74 101.058 121.919 97.8793 121.919 93.9582C121.919 90.0371 118.74 86.8584 114.819 86.8584C110.898 86.8584 107.719 90.0371 107.719 93.9582C107.719 97.8793 110.898 101.058 114.819 101.058Z" fill="#9853FF"/>
<path d="M114.825 80.3622C118.413 80.3622 121.321 77.4541 121.321 73.8667C121.321 70.2793 118.413 67.3711 114.825 67.3711C111.238 67.3711 108.33 70.2793 108.33 73.8667C108.33 77.4541 111.238 80.3622 114.825 80.3622Z" fill="#9853FF"/>
<path d="M114.831 60.8763C118.085 60.8763 120.723 58.2387 120.723 54.985C120.723 51.7314 118.085 49.0938 114.831 49.0938C111.578 49.0938 108.94 51.7314 108.94 54.985C108.94 58.2387 111.578 60.8763 114.831 60.8763Z" fill="#9853FF"/>
<path d="M114.83 42.5969C117.833 42.5969 120.268 40.1622 120.268 37.1588C120.268 34.1554 117.833 31.7207 114.83 31.7207C111.826 31.7207 109.392 34.1554 109.392 37.1588C109.392 40.1622 111.826 42.5969 114.83 42.5969Z" fill="#9853FF"/>
<path d="M114.819 25.3768C117.489 25.3768 119.653 23.2125 119.653 20.5428C119.653 17.8732 117.489 15.709 114.819 15.709C112.15 15.709 109.985 17.8732 109.985 20.5428C109.985 23.2125 112.15 25.3768 114.819 25.3768Z" fill="#9853FF"/>
<path d="M114.825 9.21318C117.161 9.21318 119.055 7.31952 119.055 4.98354C119.055 2.64757 117.161 0.753906 114.825 0.753906C112.489 0.753906 110.596 2.64757 110.596 4.98354C110.596 7.31952 112.489 9.21318 114.825 9.21318Z" fill="#9853FF"/>
<path d="M94.2802 85.9506C97.8676 85.9506 100.776 83.0424 100.776 79.455C100.776 75.8676 97.8676 72.9595 94.2802 72.9595C90.6928 72.9595 87.7847 75.8676 87.7847 79.455C87.7847 83.0424 90.6928 85.9506 94.2802 85.9506Z" fill="#9853FF"/>
<path d="M84.7568 68.8812C88.0105 68.8812 90.6481 66.2436 90.6481 62.9899C90.6481 59.7363 88.0105 57.0986 84.7568 57.0986C81.5031 57.0986 78.8655 59.7363 78.8655 62.9899C78.8655 66.2436 81.5031 68.8812 84.7568 68.8812Z" fill="#9853FF"/>
<path d="M75.8527 53.0198C78.8561 53.0198 81.2908 50.5851 81.2908 47.5817C81.2908 44.5783 78.8561 42.1436 75.8527 42.1436C72.8493 42.1436 70.4146 44.5783 70.4146 47.5817C70.4146 50.5851 72.8493 53.0198 75.8527 53.0198Z" fill="#9853FF"/>
<path d="M67.5443 38.0643C70.214 38.0643 72.3782 35.9001 72.3782 33.2304C72.3782 30.5607 70.214 28.3965 67.5443 28.3965C64.8747 28.3965 62.7104 30.5607 62.7104 33.2304C62.7104 35.9001 64.8747 38.0643 67.5443 38.0643Z" fill="#9853FF"/>
<path d="M59.6764 23.8661C62.0124 23.8661 63.9061 21.9724 63.9061 19.6364C63.9061 17.3004 62.0124 15.4067 59.6764 15.4067C57.3405 15.4067 55.4468 17.3004 55.4468 19.6364C55.4468 21.9724 57.3405 23.8661 59.6764 23.8661Z" fill="#9853FF"/>
<path d="M96.5402 111.631C100.461 111.631 103.64 108.452 103.64 104.531C103.64 100.61 100.461 97.4316 96.5402 97.4316C92.6191 97.4316 89.4404 100.61 89.4404 104.531C89.4404 108.452 92.6191 111.631 96.5402 111.631Z" fill="#9853FF"/>
<path d="M79.1733 100.906C82.7607 100.906 85.6688 97.9975 85.6688 94.4101C85.6688 90.8227 82.7607 87.9146 79.1733 87.9146C75.5859 87.9146 72.6777 90.8227 72.6777 94.4101C72.6777 97.9975 75.5859 100.906 79.1733 100.906Z" fill="#9853FF"/>
<path d="M62.8517 90.9354C66.1054 90.9354 68.7431 88.2978 68.7431 85.0441C68.7431 81.7905 66.1054 79.1528 62.8517 79.1528C59.5981 79.1528 56.9604 81.7905 56.9604 85.0441C56.9604 88.2978 59.5981 90.9354 62.8517 90.9354Z" fill="#9853FF"/>
<path d="M47.4503 81.5711C50.4537 81.5711 52.8885 79.1364 52.8885 76.133C52.8885 73.1296 50.4537 70.6948 47.4503 70.6948C44.4469 70.6948 42.0122 73.1296 42.0122 76.133C42.0122 79.1364 44.4469 81.5711 47.4503 81.5711Z" fill="#9853FF"/>
<path d="M32.9572 72.6585C35.6269 72.6585 37.7911 70.4943 37.7911 67.8246C37.7911 65.1549 35.6269 62.9907 32.9572 62.9907C30.2875 62.9907 28.1233 65.1549 28.1233 67.8246C28.1233 70.4943 30.2875 72.6585 32.9572 72.6585Z" fill="#9853FF"/>
<path d="M19.5119 64.1991C21.8479 64.1991 23.7415 62.3054 23.7415 59.9694C23.7415 57.6334 21.8479 55.7397 19.5119 55.7397C17.1759 55.7397 15.2822 57.6334 15.2822 59.9694C15.2822 62.3054 17.1759 64.1991 19.5119 64.1991Z" fill="#9853FF"/>
<path d="M73.7382 121.451C77.3256 121.451 80.2337 118.542 80.2337 114.955C80.2337 111.368 77.3256 108.459 73.7382 108.459C70.1508 108.459 67.2427 111.368 67.2427 114.955C67.2427 118.542 70.1508 121.451 73.7382 121.451Z" fill="#9853FF"/>
<path d="M54.6989 120.846C57.9526 120.846 60.5902 118.208 60.5902 114.954C60.5902 111.701 57.9526 109.063 54.6989 109.063C51.4452 109.063 48.8076 111.701 48.8076 114.954C48.8076 118.208 51.4452 120.846 54.6989 120.846Z" fill="#9853FF"/>
<path d="M37.0287 120.392C40.0321 120.392 42.4668 117.958 42.4668 114.954C42.4668 111.951 40.0321 109.516 37.0287 109.516C34.0253 109.516 31.5906 111.951 31.5906 114.954C31.5906 117.958 34.0253 120.392 37.0287 120.392Z" fill="#9853FF"/>
<path d="M20.2555 119.789C22.9252 119.789 25.0894 117.625 25.0894 114.955C25.0894 112.285 22.9252 110.121 20.2555 110.121C17.5858 110.121 15.4216 112.285 15.4216 114.955C15.4216 117.625 17.5858 119.789 20.2555 119.789Z" fill="#9853FF"/>
<path d="M4.70034 119.183C7.03632 119.183 8.93 117.29 8.93 114.954C8.93 112.618 7.03632 110.724 4.70034 110.724C2.36437 110.724 0.470703 112.618 0.470703 114.954C0.470703 117.29 2.36437 119.183 4.70034 119.183Z" fill="#9853FF"/>
<path d="M96.5402 132.629C100.461 132.629 103.64 129.451 103.64 125.529C103.64 121.608 100.461 118.43 96.5402 118.43C92.6191 118.43 89.4404 121.608 89.4404 125.529C89.4404 129.451 92.6191 132.629 96.5402 132.629Z" fill="#9853FF"/>
<path d="M79.1733 141.995C82.7607 141.995 85.6688 139.086 85.6688 135.499C85.6688 131.912 82.7607 129.003 79.1733 129.003C75.5859 129.003 72.6777 131.912 72.6777 135.499C72.6777 139.086 75.5859 141.995 79.1733 141.995Z" fill="#9853FF"/>
<path d="M62.8517 150.907C66.1054 150.907 68.7431 148.269 68.7431 145.015C68.7431 141.762 66.1054 139.124 62.8517 139.124C59.5981 139.124 56.9604 141.762 56.9604 145.015C56.9604 148.269 59.5981 150.907 62.8517 150.907Z" fill="#9853FF"/>
<path d="M47.4503 159.366C50.4537 159.366 52.8885 156.931 52.8885 153.927C52.8885 150.924 50.4537 148.489 47.4503 148.489C44.4469 148.489 42.0122 150.924 42.0122 153.927C42.0122 156.931 44.4469 159.366 47.4503 159.366Z" fill="#9853FF"/>
<path d="M32.9572 167.071C35.6269 167.071 37.7911 164.906 37.7911 162.237C37.7911 159.567 35.6269 157.403 32.9572 157.403C30.2875 157.403 28.1233 159.567 28.1233 162.237C28.1233 164.906 30.2875 167.071 32.9572 167.071Z" fill="#9853FF"/>
<path d="M19.5119 174.32C21.8479 174.32 23.7415 172.426 23.7415 170.09C23.7415 167.755 21.8479 165.861 19.5119 165.861C17.1759 165.861 15.2822 167.755 15.2822 170.09C15.2822 172.426 17.1759 174.32 19.5119 174.32Z" fill="#9853FF"/>
<path d="M94.2802 157.1C97.8676 157.1 100.776 154.192 100.776 150.604C100.776 147.017 97.8676 144.109 94.2802 144.109C90.6928 144.109 87.7847 147.017 87.7847 150.604C87.7847 154.192 90.6928 157.1 94.2802 157.1Z" fill="#9853FF"/>
<path d="M84.7568 172.81C88.0105 172.81 90.6481 170.173 90.6481 166.919C90.6481 163.665 88.0105 161.028 84.7568 161.028C81.5031 161.028 78.8655 163.665 78.8655 166.919C78.8655 170.173 81.5031 172.81 84.7568 172.81Z" fill="#9853FF"/>
<path d="M75.8527 187.917C78.8561 187.917 81.2908 185.482 81.2908 182.479C81.2908 179.475 78.8561 177.041 75.8527 177.041C72.8493 177.041 70.4146 179.475 70.4146 182.479C70.4146 185.482 72.8493 187.917 75.8527 187.917Z" fill="#9853FF"/>
<path d="M67.5443 201.663C70.214 201.663 72.3782 199.499 72.3782 196.83C72.3782 194.16 70.214 191.996 67.5443 191.996C64.8747 191.996 62.7104 194.16 62.7104 196.83C62.7104 199.499 64.8747 201.663 67.5443 201.663Z" fill="#9853FF"/>
<path d="M59.6764 214.653C62.0124 214.653 63.9061 212.759 63.9061 210.423C63.9061 208.088 62.0124 206.194 59.6764 206.194C57.3405 206.194 55.4468 208.088 55.4468 210.423C55.4468 212.759 57.3405 214.653 59.6764 214.653Z" fill="#9853FF"/>
<path d="M114.819 143.203C118.74 143.203 121.919 140.024 121.919 136.103C121.919 132.182 118.74 129.003 114.819 129.003C110.898 129.003 107.719 132.182 107.719 136.103C107.719 140.024 110.898 143.203 114.819 143.203Z" fill="#9853FF"/>
<path d="M114.825 162.69C118.413 162.69 121.321 159.782 121.321 156.194C121.321 152.607 118.413 149.699 114.825 149.699C111.238 149.699 108.33 152.607 108.33 156.194C108.33 159.782 111.238 162.69 114.825 162.69Z" fill="#9853FF"/>
<path d="M114.831 180.967C118.085 180.967 120.723 178.33 120.723 175.076C120.723 171.822 118.085 169.185 114.831 169.185C111.578 169.185 108.94 171.822 108.94 175.076C108.94 178.33 111.578 180.967 114.831 180.967Z" fill="#9853FF"/>
<path d="M114.83 198.34C117.833 198.34 120.268 195.905 120.268 192.902C120.268 189.898 117.833 187.463 114.83 187.463C111.826 187.463 109.392 189.898 109.392 192.902C109.392 195.905 111.826 198.34 114.83 198.34Z" fill="#9853FF"/>
<path d="M114.819 214.351C117.489 214.351 119.653 212.187 119.653 209.517C119.653 206.847 117.489 204.683 114.819 204.683C112.15 204.683 109.985 206.847 109.985 209.517C109.985 212.187 112.15 214.351 114.819 214.351Z" fill="#9853FF"/>
<path d="M114.825 229.306C117.161 229.306 119.055 227.412 119.055 225.076C119.055 222.74 117.161 220.847 114.825 220.847C112.489 220.847 110.596 222.74 110.596 225.076C110.596 227.412 112.489 229.306 114.825 229.306Z" fill="#9853FF"/>
<path d="M135.368 157.1C138.955 157.1 141.863 154.192 141.863 150.604C141.863 147.017 138.955 144.109 135.368 144.109C131.78 144.109 128.872 147.017 128.872 150.604C128.872 154.192 131.78 157.1 135.368 157.1Z" fill="#9853FF"/>
<path d="M144.731 172.81C147.984 172.81 150.622 170.173 150.622 166.919C150.622 163.665 147.984 161.028 144.731 161.028C141.477 161.028 138.839 163.665 138.839 166.919C138.839 170.173 141.477 172.81 144.731 172.81Z" fill="#9853FF"/>
<path d="M153.654 187.917C156.657 187.917 159.092 185.482 159.092 182.479C159.092 179.475 156.657 177.041 153.654 177.041C150.65 177.041 148.216 179.475 148.216 182.479C148.216 185.482 150.65 187.917 153.654 187.917Z" fill="#9853FF"/>
<path d="M162.108 201.663C164.778 201.663 166.942 199.499 166.942 196.83C166.942 194.16 164.778 191.996 162.108 191.996C159.438 191.996 157.274 194.16 157.274 196.83C157.274 199.499 159.438 201.663 162.108 201.663Z" fill="#9853FF"/>
<path d="M169.816 214.653C172.152 214.653 174.045 212.759 174.045 210.423C174.045 208.088 172.152 206.194 169.816 206.194C167.48 206.194 165.586 208.088 165.586 210.423C165.586 212.759 167.48 214.653 169.816 214.653Z" fill="#9853FF"/>
<path d="M133.098 132.629C137.019 132.629 140.198 129.451 140.198 125.529C140.198 121.608 137.019 118.43 133.098 118.43C129.177 118.43 125.998 121.608 125.998 125.529C125.998 129.451 129.177 132.629 133.098 132.629Z" fill="#9853FF"/>
<path d="M150.319 141.995C153.906 141.995 156.814 139.086 156.814 135.499C156.814 131.912 153.906 129.003 150.319 129.003C146.731 129.003 143.823 131.912 143.823 135.499C143.823 139.086 146.731 141.995 150.319 141.995Z" fill="#9853FF"/>
<path d="M166.792 150.907C170.045 150.907 172.683 148.269 172.683 145.015C172.683 141.762 170.045 139.124 166.792 139.124C163.538 139.124 160.9 141.762 160.9 145.015C160.9 148.269 163.538 150.907 166.792 150.907Z" fill="#9853FF"/>
<path d="M182.195 159.366C185.199 159.366 187.634 156.931 187.634 153.927C187.634 150.924 185.199 148.489 182.195 148.489C179.192 148.489 176.757 150.924 176.757 153.927C176.757 156.931 179.192 159.366 182.195 159.366Z" fill="#9853FF"/>
<path d="M196.698 167.071C199.368 167.071 201.532 164.906 201.532 162.237C201.532 159.567 199.368 157.403 196.698 157.403C194.028 157.403 191.864 159.567 191.864 162.237C191.864 164.906 194.028 167.071 196.698 167.071Z" fill="#9853FF"/>
<path d="M210.136 174.32C212.472 174.32 214.366 172.426 214.366 170.09C214.366 167.755 212.472 165.861 210.136 165.861C207.8 165.861 205.906 167.755 205.906 170.09C205.906 172.426 207.8 174.32 210.136 174.32Z" fill="#9853FF"/>
<path d="M155.913 121.451C159.5 121.451 162.408 118.542 162.408 114.955C162.408 111.368 159.5 108.459 155.913 108.459C152.325 108.459 149.417 111.368 149.417 114.955C149.417 118.542 152.325 121.451 155.913 121.451Z" fill="#9853FF"/>
<path d="M174.789 120.846C178.042 120.846 180.68 118.208 180.68 114.954C180.68 111.701 178.042 109.063 174.789 109.063C171.535 109.063 168.897 111.701 168.897 114.954C168.897 118.208 171.535 120.846 174.789 120.846Z" fill="#9853FF"/>
<path d="M192.614 120.392C195.618 120.392 198.052 117.958 198.052 114.954C198.052 111.951 195.618 109.516 192.614 109.516C189.611 109.516 187.176 111.951 187.176 114.954C187.176 117.958 189.611 120.392 192.614 120.392Z" fill="#9853FF"/>
<path d="M209.244 119.789C211.913 119.789 214.078 117.625 214.078 114.955C214.078 112.285 211.913 110.121 209.244 110.121C206.574 110.121 204.41 112.285 204.41 114.955C204.41 117.625 206.574 119.789 209.244 119.789Z" fill="#9853FF"/>
<path d="M224.948 119.183C227.284 119.183 229.178 117.29 229.178 114.954C229.178 112.618 227.284 110.724 224.948 110.724C222.612 110.724 220.718 112.618 220.718 114.954C220.718 117.29 222.612 119.183 224.948 119.183Z" fill="#9853FF"/>
<path d="M133.098 111.631C137.019 111.631 140.198 108.452 140.198 104.531C140.198 100.61 137.019 97.4316 133.098 97.4316C129.177 97.4316 125.998 100.61 125.998 104.531C125.998 108.452 129.177 111.631 133.098 111.631Z" fill="#9853FF"/>
<path d="M150.319 100.906C153.906 100.906 156.814 97.9975 156.814 94.4101C156.814 90.8227 153.906 87.9146 150.319 87.9146C146.731 87.9146 143.823 90.8227 143.823 94.4101C143.823 97.9975 146.731 100.906 150.319 100.906Z" fill="#9853FF"/>
<path d="M166.792 90.9354C170.045 90.9354 172.683 88.2978 172.683 85.0441C172.683 81.7905 170.045 79.1528 166.792 79.1528C163.538 79.1528 160.9 81.7905 160.9 85.0441C160.9 88.2978 163.538 90.9354 166.792 90.9354Z" fill="#9853FF"/>
<path d="M182.195 81.5711C185.199 81.5711 187.634 79.1364 187.634 76.133C187.634 73.1296 185.199 70.6948 182.195 70.6948C179.192 70.6948 176.757 73.1296 176.757 76.133C176.757 79.1364 179.192 81.5711 182.195 81.5711Z" fill="#9853FF"/>
<path d="M196.698 72.6585C199.368 72.6585 201.532 70.4943 201.532 67.8246C201.532 65.1549 199.368 62.9907 196.698 62.9907C194.028 62.9907 191.864 65.1549 191.864 67.8246C191.864 70.4943 194.028 72.6585 196.698 72.6585Z" fill="#9853FF"/>
<path d="M210.136 64.1991C212.472 64.1991 214.366 62.3054 214.366 59.9694C214.366 57.6334 212.472 55.7397 210.136 55.7397C207.8 55.7397 205.906 57.6334 205.906 59.9694C205.906 62.3054 207.8 64.1991 210.136 64.1991Z" fill="#9853FF"/>
<path d="M157.259 78.3984C160.513 78.3984 163.151 75.7607 163.151 72.5071C163.151 69.2534 160.513 66.6157 157.259 66.6157C154.006 66.6157 151.368 69.2534 151.368 72.5071C151.368 75.7607 154.006 78.3984 157.259 78.3984Z" fill="#9853FF"/>
<path d="M169.806 65.4066C172.809 65.4066 175.244 62.9718 175.244 59.9684C175.244 56.965 172.809 54.5303 169.806 54.5303C166.803 54.5303 164.368 56.965 164.368 59.9684C164.368 62.9718 166.803 65.4066 169.806 65.4066Z" fill="#9853FF"/>
<path d="M181.591 53.0208C184.261 53.0208 186.425 50.8566 186.425 48.1869C186.425 45.5173 184.261 43.353 181.591 43.353C178.922 43.353 176.757 45.5173 176.757 48.1869C176.757 50.8566 178.922 53.0208 181.591 53.0208Z" fill="#9853FF"/>
<path d="M192.607 41.3895C194.943 41.3895 196.837 39.4958 196.837 37.1598C196.837 34.8238 194.943 32.9302 192.607 32.9302C190.271 32.9302 188.377 34.8238 188.377 37.1598C188.377 39.4958 190.271 41.3895 192.607 41.3895Z" fill="#9853FF"/>
<path d="M144.731 68.8812C147.984 68.8812 150.622 66.2436 150.622 62.9899C150.622 59.7363 147.984 57.0986 144.731 57.0986C141.477 57.0986 138.839 59.7363 138.839 62.9899C138.839 66.2436 141.477 68.8812 144.731 68.8812Z" fill="#9853FF"/>
<path d="M153.654 53.0198C156.657 53.0198 159.092 50.5851 159.092 47.5817C159.092 44.5783 156.657 42.1436 153.654 42.1436C150.65 42.1436 148.216 44.5783 148.216 47.5817C148.216 50.5851 150.65 53.0198 153.654 53.0198Z" fill="#9853FF"/>
<path d="M162.108 38.0643C164.778 38.0643 166.942 35.9001 166.942 33.2304C166.942 30.5607 164.778 28.3965 162.108 28.3965C159.438 28.3965 157.274 30.5607 157.274 33.2304C157.274 35.9001 159.438 38.0643 162.108 38.0643Z" fill="#9853FF"/>
<path d="M169.816 23.8661C172.152 23.8661 174.045 21.9724 174.045 19.6364C174.045 17.3004 172.152 15.4067 169.816 15.4067C167.48 15.4067 165.586 17.3004 165.586 19.6364C165.586 21.9724 167.48 23.8661 169.816 23.8661Z" fill="#9853FF"/>
<path d="M130.39 62.9901C133.644 62.9901 136.281 60.3525 136.281 57.0988C136.281 53.8451 133.644 51.2075 130.39 51.2075C127.136 51.2075 124.499 53.8451 124.499 57.0988C124.499 60.3525 127.136 62.9901 130.39 62.9901Z" fill="#9853FF"/>
<path d="M134.904 45.3157C137.907 45.3157 140.342 42.881 140.342 39.8776C140.342 36.8742 137.907 34.4395 134.904 34.4395C131.9 34.4395 129.466 36.8742 129.466 39.8776C129.466 42.881 131.9 45.3157 134.904 45.3157Z" fill="#9853FF"/>
<path d="M139.3 28.5486C141.97 28.5486 144.134 26.3844 144.134 23.7147C144.134 21.045 141.97 18.8809 139.3 18.8809C136.63 18.8809 134.466 21.045 134.466 23.7147C134.466 26.3844 136.63 28.5486 139.3 28.5486Z" fill="#9853FF"/>
<path d="M143.228 12.8382C145.564 12.8382 147.457 10.9445 147.457 8.60854C147.457 6.27257 145.564 4.37891 143.228 4.37891C140.892 4.37891 138.998 6.27257 138.998 8.60854C138.998 10.9445 140.892 12.8382 143.228 12.8382Z" fill="#9853FF"/>
<path d="M99.2702 62.9901C102.524 62.9901 105.161 60.3525 105.161 57.0988C105.161 53.8451 102.524 51.2075 99.2702 51.2075C96.0165 51.2075 93.3789 53.8451 93.3789 57.0988C93.3789 60.3525 96.0165 62.9901 99.2702 62.9901Z" fill="#9853FF"/>
<path d="M94.5832 45.3157C97.5866 45.3157 100.021 42.881 100.021 39.8776C100.021 36.8742 97.5866 34.4395 94.5832 34.4395C91.5798 34.4395 89.145 36.8742 89.145 39.8776C89.145 42.881 91.5798 45.3157 94.5832 45.3157Z" fill="#9853FF"/>
<path d="M90.3554 28.5486C93.0251 28.5486 95.1893 26.3844 95.1893 23.7147C95.1893 21.045 93.0251 18.8809 90.3554 18.8809C87.6857 18.8809 85.5215 21.045 85.5215 23.7147C85.5215 26.3844 87.6857 28.5486 90.3554 28.5486Z" fill="#9853FF"/>
<path d="M86.2643 12.8382C88.6003 12.8382 90.494 10.9445 90.494 8.60854C90.494 6.27257 88.6003 4.37891 86.2643 4.37891C83.9283 4.37891 82.0347 6.27257 82.0347 8.60854C82.0347 10.9445 83.9283 12.8382 86.2643 12.8382Z" fill="#9853FF"/>
<path d="M72.3674 78.3984C75.6211 78.3984 78.2587 75.7607 78.2587 72.5071C78.2587 69.2534 75.6211 66.6157 72.3674 66.6157C69.1137 66.6157 66.4761 69.2534 66.4761 72.5071C66.4761 75.7607 69.1137 78.3984 72.3674 78.3984Z" fill="#9853FF"/>
<path d="M59.6808 65.4066C62.6842 65.4066 65.1189 62.9718 65.1189 59.9684C65.1189 56.965 62.6842 54.5303 59.6808 54.5303C56.6774 54.5303 54.2427 56.965 54.2427 59.9684C54.2427 62.9718 56.6774 65.4066 59.6808 65.4066Z" fill="#9853FF"/>
<path d="M47.9081 53.0208C50.5778 53.0208 52.742 50.8566 52.742 48.1869C52.742 45.5173 50.5778 43.353 47.9081 43.353C45.2384 43.353 43.0742 45.5173 43.0742 48.1869C43.0742 50.8566 45.2384 53.0208 47.9081 53.0208Z" fill="#9853FF"/>
<path d="M36.8849 41.3895C39.2209 41.3895 41.1146 39.4958 41.1146 37.1598C41.1146 34.8238 39.2209 32.9302 36.8849 32.9302C34.549 32.9302 32.6553 34.8238 32.6553 37.1598C32.6553 39.4958 34.549 41.3895 36.8849 41.3895Z" fill="#9853FF"/>
<path d="M56.8061 105.438C60.0598 105.438 62.6974 102.8 62.6974 99.5466C62.6974 96.2929 60.0598 93.6553 56.8061 93.6553C53.5524 93.6553 50.9148 96.2929 50.9148 99.5466C50.9148 102.8 53.5524 105.438 56.8061 105.438Z" fill="#9853FF"/>
<path d="M39.5902 100.302C42.5936 100.302 45.0284 97.8668 45.0284 94.8634C45.0284 91.86 42.5936 89.4253 39.5902 89.4253C36.5868 89.4253 34.1521 91.86 34.1521 94.8634C34.1521 97.8668 36.5868 100.302 39.5902 100.302Z" fill="#9853FF"/>
<path d="M23.4274 95.3162C26.0971 95.3162 28.2613 93.152 28.2613 90.4823C28.2613 87.8127 26.0971 85.6484 23.4274 85.6484C20.7577 85.6484 18.5935 87.8127 18.5935 90.4823C18.5935 93.152 20.7577 95.3162 23.4274 95.3162Z" fill="#9853FF"/>
<path d="M8.48257 90.784C10.8185 90.784 12.7122 88.8903 12.7122 86.5543C12.7122 84.2184 10.8185 82.3247 8.48257 82.3247C6.14659 82.3247 4.25293 84.2184 4.25293 86.5543C4.25293 88.8903 6.14659 90.784 8.48257 90.784Z" fill="#9853FF"/>
<path d="M56.8061 136.406C60.0598 136.406 62.6974 133.768 62.6974 130.514C62.6974 127.261 60.0598 124.623 56.8061 124.623C53.5524 124.623 50.9148 127.261 50.9148 130.514C50.9148 133.768 53.5524 136.406 56.8061 136.406Z" fill="#9853FF"/>
<path d="M39.5902 140.635C42.5936 140.635 45.0284 138.2 45.0284 135.197C45.0284 132.194 42.5936 129.759 39.5902 129.759C36.5868 129.759 34.1521 132.194 34.1521 135.197C34.1521 138.2 36.5868 140.635 39.5902 140.635Z" fill="#9853FF"/>
<path d="M23.4274 144.261C26.0971 144.261 28.2613 142.097 28.2613 139.427C28.2613 136.757 26.0971 134.593 23.4274 134.593C20.7577 134.593 18.5935 136.757 18.5935 139.427C18.5935 142.097 20.7577 144.261 23.4274 144.261Z" fill="#9853FF"/>
<path d="M8.48257 147.735C10.8185 147.735 12.7122 145.842 12.7122 143.506C12.7122 141.17 10.8185 139.276 8.48257 139.276C6.14659 139.276 4.25293 141.17 4.25293 143.506C4.25293 145.842 6.14659 147.735 8.48257 147.735Z" fill="#9853FF"/>
<path d="M72.3674 163.293C75.6211 163.293 78.2587 160.656 78.2587 157.402C78.2587 154.148 75.6211 151.511 72.3674 151.511C69.1137 151.511 66.4761 154.148 66.4761 157.402C66.4761 160.656 69.1137 163.293 72.3674 163.293Z" fill="#9853FF"/>
<path d="M59.6808 175.53C62.6842 175.53 65.1189 173.095 65.1189 170.092C65.1189 167.089 62.6842 164.654 59.6808 164.654C56.6774 164.654 54.2427 167.089 54.2427 170.092C54.2427 173.095 56.6774 175.53 59.6808 175.53Z" fill="#9853FF"/>
<path d="M47.9081 186.708C50.5778 186.708 52.742 184.544 52.742 181.874C52.742 179.205 50.5778 177.041 47.9081 177.041C45.2384 177.041 43.0742 179.205 43.0742 181.874C43.0742 184.544 45.2384 186.708 47.9081 186.708Z" fill="#9853FF"/>
<path d="M36.8849 197.131C39.2209 197.131 41.1146 195.237 41.1146 192.902C41.1146 190.566 39.2209 188.672 36.8849 188.672C34.549 188.672 32.6553 190.566 32.6553 192.902C32.6553 195.237 34.549 197.131 36.8849 197.131Z" fill="#9853FF"/>
<path d="M99.2702 178.853C102.524 178.853 105.161 176.215 105.161 172.962C105.161 169.708 102.524 167.07 99.2702 167.07C96.0165 167.07 93.3789 169.708 93.3789 172.962C93.3789 176.215 96.0165 178.853 99.2702 178.853Z" fill="#9853FF"/>
<path d="M94.5832 195.619C97.5866 195.619 100.021 193.185 100.021 190.181C100.021 187.178 97.5866 184.743 94.5832 184.743C91.5798 184.743 89.145 187.178 89.145 190.181C89.145 193.185 91.5798 195.619 94.5832 195.619Z" fill="#9853FF"/>
<path d="M90.3554 211.179C93.0251 211.179 95.1893 209.015 95.1893 206.345C95.1893 203.675 93.0251 201.511 90.3554 201.511C87.6857 201.511 85.5215 203.675 85.5215 206.345C85.5215 209.015 87.6857 211.179 90.3554 211.179Z" fill="#9853FF"/>
<path d="M86.2643 225.531C88.6003 225.531 90.494 223.637 90.494 221.301C90.494 218.965 88.6003 217.071 86.2643 217.071C83.9283 217.071 82.0347 218.965 82.0347 221.301C82.0347 223.637 83.9283 225.531 86.2643 225.531Z" fill="#9853FF"/>
<path d="M130.39 178.853C133.644 178.853 136.281 176.215 136.281 172.962C136.281 169.708 133.644 167.07 130.39 167.07C127.136 167.07 124.499 169.708 124.499 172.962C124.499 176.215 127.136 178.853 130.39 178.853Z" fill="#9853FF"/>
<path d="M134.904 195.619C137.907 195.619 140.342 193.185 140.342 190.181C140.342 187.178 137.907 184.743 134.904 184.743C131.9 184.743 129.466 187.178 129.466 190.181C129.466 193.185 131.9 195.619 134.904 195.619Z" fill="#9853FF"/>
<path d="M139.3 211.179C141.97 211.179 144.134 209.015 144.134 206.345C144.134 203.675 141.97 201.511 139.3 201.511C136.63 201.511 134.466 203.675 134.466 206.345C134.466 209.015 136.63 211.179 139.3 211.179Z" fill="#9853FF"/>
<path d="M143.228 225.531C145.564 225.531 147.457 223.637 147.457 221.301C147.457 218.965 145.564 217.071 143.228 217.071C140.892 217.071 138.998 218.965 138.998 221.301C138.998 223.637 140.892 225.531 143.228 225.531Z" fill="#9853FF"/>
<path d="M157.259 163.293C160.513 163.293 163.151 160.656 163.151 157.402C163.151 154.148 160.513 151.511 157.259 151.511C154.006 151.511 151.368 154.148 151.368 157.402C151.368 160.656 154.006 163.293 157.259 163.293Z" fill="#9853FF"/>
<path d="M169.806 175.53C172.809 175.53 175.244 173.095 175.244 170.092C175.244 167.089 172.809 164.654 169.806 164.654C166.803 164.654 164.368 167.089 164.368 170.092C164.368 173.095 166.803 175.53 169.806 175.53Z" fill="#9853FF"/>
<path d="M181.591 186.708C184.261 186.708 186.425 184.544 186.425 181.874C186.425 179.205 184.261 177.041 181.591 177.041C178.922 177.041 176.757 179.205 176.757 181.874C176.757 184.544 178.922 186.708 181.591 186.708Z" fill="#9853FF"/>
<path d="M192.607 197.131C194.943 197.131 196.837 195.237 196.837 192.902C196.837 190.566 194.943 188.672 192.607 188.672C190.271 188.672 188.377 190.566 188.377 192.902C188.377 195.237 190.271 197.131 192.607 197.131Z" fill="#9853FF"/>
<path d="M172.821 136.406C176.074 136.406 178.712 133.768 178.712 130.514C178.712 127.261 176.074 124.623 172.821 124.623C169.567 124.623 166.929 127.261 166.929 130.514C166.929 133.768 169.567 136.406 172.821 136.406Z" fill="#9853FF"/>
<path d="M189.897 140.635C192.9 140.635 195.335 138.2 195.335 135.197C195.335 132.194 192.9 129.759 189.897 129.759C186.893 129.759 184.458 132.194 184.458 135.197C184.458 138.2 186.893 140.635 189.897 140.635Z" fill="#9853FF"/>
<path d="M206.055 144.261C208.725 144.261 210.889 142.097 210.889 139.427C210.889 136.757 208.725 134.593 206.055 134.593C203.385 134.593 201.221 136.757 201.221 139.427C201.221 142.097 203.385 144.261 206.055 144.261Z" fill="#9853FF"/>
<path d="M221.168 147.735C223.504 147.735 225.398 145.842 225.398 143.506C225.398 141.17 223.504 139.276 221.168 139.276C218.832 139.276 216.939 141.17 216.939 143.506C216.939 145.842 218.832 147.735 221.168 147.735Z" fill="#9853FF"/>
<path d="M172.821 105.438C176.074 105.438 178.712 102.8 178.712 99.5466C178.712 96.2929 176.074 93.6553 172.821 93.6553C169.567 93.6553 166.929 96.2929 166.929 99.5466C166.929 102.8 169.567 105.438 172.821 105.438Z" fill="#9853FF"/>
<path d="M189.897 100.302C192.9 100.302 195.335 97.8668 195.335 94.8634C195.335 91.86 192.9 89.4253 189.897 89.4253C186.893 89.4253 184.458 91.86 184.458 94.8634C184.458 97.8668 186.893 100.302 189.897 100.302Z" fill="#9853FF"/>
<path d="M206.055 95.3162C208.725 95.3162 210.889 93.152 210.889 90.4823C210.889 87.8127 208.725 85.6484 206.055 85.6484C203.385 85.6484 201.221 87.8127 201.221 90.4823C201.221 93.152 203.385 95.3162 206.055 95.3162Z" fill="#9853FF"/>
<path d="M221.168 90.784C223.504 90.784 225.398 88.8903 225.398 86.5543C225.398 84.2184 223.504 82.3247 221.168 82.3247C218.832 82.3247 216.939 84.2184 216.939 86.5543C216.939 88.8903 218.832 90.784 221.168 90.784Z" fill="#9853FF"/>
<path d="M135.368 85.9506C138.955 85.9506 141.863 83.0424 141.863 79.455C141.863 75.8676 138.955 72.9595 135.368 72.9595C131.78 72.9595 128.872 75.8676 128.872 79.455C128.872 83.0424 131.78 85.9506 135.368 85.9506Z" fill="#9853FF"/>
</svg>
