<svg width="135" height="242" viewBox="0 0 135 242" fill="none" xmlns="http://www.w3.org/2000/svg">
<path d="M78.9246 156.769L28.2712 186.088V29.5649L78.9246 0.359375V156.769Z" fill="#9853FF"/>
<path d="M68.2065 78.1637C68.0925 78.1637 68.0924 78.1637 67.9784 78.1637L17.3251 48.9581C17.211 48.8441 17.0969 48.73 17.0969 48.6159C17.0969 48.5018 17.211 48.3877 17.3251 48.2737L67.6361 19.1822C67.7502 19.0682 67.8643 19.0682 67.9784 19.1822L118.632 48.3877C118.746 48.5018 118.86 48.6159 118.86 48.73C118.86 48.8441 118.746 48.9581 118.632 49.0722L68.4347 78.0496C68.3206 78.0496 68.3206 78.1637 68.2065 78.1637ZM18.3518 48.5018L68.2065 77.251L117.833 48.6159L67.9784 19.8667L18.3518 48.5018Z" fill="#E8EAFF"/>
<path d="M68.2065 234.687C68.0925 234.687 68.0924 234.687 67.9784 234.687L17.3251 205.482C17.211 205.368 17.0969 205.253 17.0969 205.139C17.0969 205.025 17.211 204.911 17.3251 204.797L67.6361 175.706C67.7502 175.592 67.8643 175.592 67.9784 175.706L118.632 204.911C118.746 205.025 118.86 205.139 118.86 205.253C118.86 205.368 118.746 205.482 118.632 205.596L68.4347 234.687C68.3206 234.687 68.3206 234.687 68.2065 234.687ZM18.3518 205.025L68.2065 233.774L117.833 205.139L67.9784 176.39L18.3518 205.025Z" fill="#E8EAFF"/>
<path d="M68.0894 234.688C67.9753 234.688 67.9753 234.688 67.8612 234.688L17.2078 205.482C17.0938 205.368 16.9797 205.254 16.9797 205.14V48.6168C16.9797 48.5027 17.0938 48.3886 17.2078 48.2745C17.3219 48.1604 17.4361 48.1604 17.5502 48.2745L68.2034 77.48C68.3175 77.5941 68.4316 77.7082 68.4316 77.8223V234.346C68.4316 234.46 68.3175 234.574 68.2034 234.688H68.0894ZM17.7783 204.798L67.633 233.547V78.0504L17.7783 49.1872V204.798Z" fill="#E8EAFF"/>
<path d="M51.8813 239.25C51.7673 239.25 51.7673 239.25 51.6532 239.25L0.99991 210.045C0.885826 209.931 0.771729 209.817 0.771729 209.703V53.1793C0.771729 53.0652 0.885826 52.9511 0.99991 52.837C1.11399 52.7229 1.22806 52.7229 1.34215 52.837L51.9954 82.0425C52.1095 82.1566 52.2236 82.2707 52.2236 82.3848V238.908C52.2236 239.022 52.1095 239.136 51.9954 239.25H51.8813ZM1.57033 209.36L51.425 238.109V82.6129L1.57033 53.8638V209.36Z" fill="#E8EAFF"/>
<path d="M68.0753 234.688C67.9612 234.688 67.9612 234.688 67.8471 234.688C67.733 234.574 67.6189 234.46 67.6189 234.346V77.8223C67.6189 77.7082 67.733 77.5941 67.8471 77.48L118.5 48.2745C118.614 48.1604 118.729 48.1604 118.843 48.2745C118.957 48.3886 119.071 48.5027 119.071 48.6168V205.14C119.071 205.254 118.957 205.368 118.843 205.482L68.1893 234.688H68.0753ZM68.4175 78.0504V233.661L118.272 204.912V49.1872L68.4175 78.0504Z" fill="#E8EAFF"/>
<path d="M83.7174 241.873C83.6033 241.873 83.6033 241.873 83.4892 241.873C83.3751 241.759 83.261 241.645 83.261 241.531V85.0078C83.261 84.8937 83.3751 84.7797 83.4892 84.6656L134.142 55.4601C134.257 55.346 134.371 55.346 134.485 55.4601C134.599 55.5742 134.713 55.6882 134.713 55.8023V212.326C134.713 212.44 134.599 212.554 134.485 212.668L83.8314 241.873C83.8314 241.759 83.7174 241.873 83.7174 241.873ZM84.0596 85.236V240.847L133.914 212.097V56.3727L84.0596 85.236Z" fill="#E8EAFF"/>
</svg>
