<svg width="32" height="36" viewBox="0 0 32 36" fill="none" xmlns="http://www.w3.org/2000/svg">
<path d="M22.9752 22.77C26.6652 21.915 29.5002 20.34 29.5002 18C29.5002 15.66 25.2702 13.41 20.4102 12.825C21.5802 12.015 22.3002 11.025 22.3002 9.90005C22.3002 8.77505 21.5352 7.69505 20.3202 6.93005C22.5702 6.39005 24.1002 5.13006 24.1002 3.60006C24.1002 2.07006 21.4002 6.10352e-05 17.8002 6.10352e-05C14.2002 6.10352e-05 11.5002 1.53006 11.5002 3.60006C11.5168 3.95914 11.605 4.31128 11.7596 4.63583C11.9141 4.96038 12.1319 5.2508 12.4002 5.49006C8.71019 5.94005 6.10019 7.69505 6.10019 9.90005C6.10019 12.105 7.40519 12.78 9.47519 13.59C6.46019 14.49 4.30019 15.975 4.30019 18C4.30019 20.025 6.64019 21.6 9.83519 22.5C4.43519 24.12 0.700195 27.585 0.700195 30.6C0.700195 34.29 5.56019 36 16.0002 36C26.4402 36 31.3002 34.29 31.3002 30.6C31.3002 27.72 27.9252 24.435 22.9752 22.77ZM17.8002 1.80006C20.5452 1.80006 22.3002 2.88006 22.3002 3.60006C22.3002 4.32006 20.5452 5.40005 17.8002 5.40005C15.0552 5.40005 13.3002 4.32006 13.3002 3.60006C13.3002 2.88006 15.0552 1.80006 17.8002 1.80006ZM7.90019 9.90005C7.90019 8.64005 10.6002 7.20005 14.2002 7.20005C17.8002 7.20005 20.5002 8.64005 20.5002 9.90005C20.5002 11.16 17.8002 12.6 14.2002 12.6C10.6002 12.6 7.90019 11.16 7.90019 9.90005ZM6.10019 18C6.10019 16.515 10.1952 14.4 16.9002 14.4C23.6052 14.4 27.7002 16.515 27.7002 18C27.7002 19.485 23.6052 21.6 16.9002 21.6C10.1952 21.6 6.10019 19.485 6.10019 18ZM16.0002 34.2C4.25519 34.2 2.50019 31.95 2.50019 30.6C2.50019 27.765 8.53019 23.4 16.0002 23.4C23.4702 23.4 29.5002 27.765 29.5002 30.6C29.5002 31.95 27.7452 34.2 16.0002 34.2Z" fill="#8533FF"/>
</svg>
