<svg width="37" height="26" viewBox="0 0 37 26" fill="none" xmlns="http://www.w3.org/2000/svg">
<path d="M35.3366 4.61795C35.137 3.87766 34.7471 3.20253 34.2056 2.65977C33.664 2.117 32.9898 1.72553 32.25 1.52433C29.5067 0.771064 18.5319 0.758802 18.5319 0.758802C18.5319 0.758802 7.55876 0.74654 4.81374 1.46652C4.07436 1.67699 3.4015 2.07399 2.85976 2.61942C2.31801 3.16484 1.92557 3.84038 1.72011 4.58116C0.996634 7.32444 0.989627 13.0142 0.989627 13.0142C0.989627 13.0142 0.98262 18.732 1.70085 21.4472C2.10375 22.9485 3.2862 24.1344 4.78922 24.5391C7.56052 25.2923 18.5056 25.3046 18.5056 25.3046C18.5056 25.3046 29.4804 25.3169 32.2237 24.5986C32.9638 24.3978 33.6387 24.0072 34.1816 23.4656C34.7244 22.9239 35.1165 22.2499 35.3191 21.5103C36.0443 18.7688 36.0496 13.0808 36.0496 13.0808C36.0496 13.0808 36.0846 7.36122 35.3366 4.61795ZM15.0213 18.2853L15.0301 7.77464L24.1515 13.0387L15.0213 18.2853Z" fill="#F6F6F7" fill-opacity="0.6"/>
</svg>
